<svg width="110" height="66" viewBox="0 0 110 66" fill="none" xmlns="http://www.w3.org/2000/svg">
<path d="M24.3516 63.4878H101.754" stroke="#222A41" stroke-width="4" stroke-linecap="round"/>
<rect x="2" y="2" width="105.582" height="51.6605" rx="13" stroke="#222A41" stroke-width="4"/>
<path d="M47.1623 29.9188L41.101 41.3503C41.0493 41.4477 40.9479 41.5183 40.8361 41.5342L37.1219 42.0595C36.9042 42.0903 36.7467 41.9107 36.8174 41.7125L41.463 28.6871C41.5187 28.5311 41.6951 28.4322 41.8572 28.4658L46.9875 29.5337C47.1669 29.5712 47.25 29.7536 47.1623 29.9188Z" fill="#222A41" stroke="#222A41" stroke-width="0.333515"/>
<path d="M47.1887 25.8485L41.1273 14.4171C41.0757 14.3197 40.9743 14.249 40.8625 14.2331L37.1483 13.7078C36.9306 13.6771 36.773 13.8566 36.8437 14.0548L41.4894 27.0802C41.5451 27.2362 41.7214 27.3351 41.8836 27.3015L47.0139 26.2337C47.1933 26.1961 47.2763 26.0138 47.1887 25.8485Z" fill="#222A41" stroke="#222A41" stroke-width="0.333515"/>
<path d="M32.2969 27.6169L30.0996 34.155C30.0811 34.2101 30.0351 34.2515 29.9785 34.2644L24.8496 35.4333C24.7276 35.4612 24.6197 35.3493 24.6514 35.2283L26.6221 27.6902C26.6439 27.6066 26.6433 27.5188 26.6211 27.4353L24.6523 20.0603C24.6203 19.9402 24.726 19.8286 24.8477 19.8542L29.9775 20.9353C30.0351 20.9474 30.0826 20.9891 30.1016 21.0447L32.2969 27.5105C32.3085 27.545 32.3085 27.5824 32.2969 27.6169Z" fill="#222A41" stroke="#222A41" stroke-width="0.333515"/>
<path d="M62.4512 27.8306C62.451 29.1793 61.3576 30.2729 60.0088 30.2729L29.7363 30.2729L29.7363 25.3882L60.0088 25.3882C61.3576 25.3882 62.4512 26.4817 62.4512 27.8306Z" fill="#222A41" stroke="#222A41" stroke-width="0.333515"/>
<circle cx="83.0556" cy="16.959" r="3.04393" fill="#222A41"/>
<circle cx="83.0556" cy="28.2651" r="3.04393" fill="#222A41"/>
<circle cx="83.0556" cy="39.571" r="3.04393" fill="#222A41"/>
</svg>
