<svg width="400" height="341" viewBox="0 0 400 341" fill="none" xmlns="http://www.w3.org/2000/svg">
<g filter="url(#filter0_di_156_9)">
<rect x="5" y="5" width="386" height="327" rx="50" fill="#F4F3F1"/>
</g>
<rect x="264.5" y="160.5" width="87" height="26" rx="13" fill="#B7D3FA" stroke="#B7D3FA"/>
<rect x="42.5" y="196.5" width="268" height="26" rx="13" fill="#B7D3FA" stroke="#B7D3FA"/>
<rect x="42.5" y="232.5" width="268" height="26" rx="13" stroke="#222A41"/>
<rect x="264.5" y="196.5" width="87" height="26" rx="13" stroke="#222A41"/>
<path d="M163.912 59V44.864H171.322L175.654 52.806L180.062 44.864H187.168V59H181.829V50.184L176.87 59H174.115L169.175 50.184V59H163.912ZM200.572 53.186L198.197 48.322L195.879 53.186H200.572ZM203.403 59L202.301 56.72H194.226L193.143 59H187.671L194.663 44.864H201.921L209.312 59H203.403ZM224.01 59V50.127L215.137 59H209.741V44.864H215.137V53.756L224.01 44.864H229.406V59H224.01ZM220.077 44.142H219.317C215.612 44.142 215.023 41.919 215.023 40.912V40.874H218.5C218.5 41.102 218.671 41.805 219.716 41.805C220.742 41.805 220.894 41.102 220.894 40.874H224.314V40.912C224.314 41.919 223.459 44.142 220.077 44.142Z" fill="#222A41"/>
<path d="M337 56.814L341.2 51.657L337 46.5" stroke="#222A41" stroke-width="2" stroke-linecap="round" stroke-linejoin="round"/>
<path d="M60.2 56.814L56 51.657L60.2 46.5" stroke="#222A41" stroke-width="2" stroke-linecap="round" stroke-linejoin="round"/>
<path d="M60.9509 102.274H56.2189V110.548H54.5389V100.748H62.6169V110.548H60.9509V102.274ZM64.7912 106.054V104.528H71.7772V106.054H64.7912ZM70.7132 100.748H72.3652V110.548H70.7132V100.748ZM64.1332 100.748H65.7852V110.548H64.1332V100.748Z" fill="#222A41"/>
<path d="M102.424 105.494V104.682H104.006C104.314 104.682 104.585 104.631 104.818 104.528C105.052 104.425 105.234 104.281 105.364 104.094C105.495 103.898 105.56 103.665 105.56 103.394C105.56 102.983 105.416 102.666 105.126 102.442C104.837 102.218 104.464 102.106 104.006 102.106H102.816V109.19H104.188C104.562 109.19 104.893 109.129 105.182 109.008C105.472 108.887 105.7 108.705 105.868 108.462C106.036 108.219 106.12 107.916 106.12 107.552C106.12 107.291 106.069 107.062 105.966 106.866C105.873 106.661 105.738 106.493 105.56 106.362C105.392 106.222 105.192 106.124 104.958 106.068C104.725 106.003 104.468 105.97 104.188 105.97H102.424V105.06H104.286C104.762 105.06 105.21 105.111 105.63 105.214C106.05 105.317 106.424 105.475 106.75 105.69C107.086 105.905 107.348 106.18 107.534 106.516C107.721 106.852 107.814 107.253 107.814 107.72C107.814 108.364 107.66 108.896 107.352 109.316C107.054 109.736 106.638 110.049 106.106 110.254C105.584 110.45 104.977 110.548 104.286 110.548H101.164V100.748H104.118C104.734 100.748 105.276 100.837 105.742 101.014C106.218 101.191 106.587 101.462 106.848 101.826C107.119 102.19 107.254 102.652 107.254 103.212C107.254 103.697 107.119 104.113 106.848 104.458C106.587 104.794 106.218 105.051 105.742 105.228C105.276 105.405 104.734 105.494 104.118 105.494H102.424ZM107.455 102.274V100.748H114.287V102.274H111.697V110.548H110.031V102.274H107.455Z" fill="#222A41"/>
<path d="M146.148 105.648C146.148 106.339 146.302 106.945 146.61 107.468C146.927 107.991 147.338 108.397 147.842 108.686C148.355 108.966 148.911 109.106 149.508 109.106C149.975 109.106 150.395 109.045 150.768 108.924C151.141 108.803 151.477 108.639 151.776 108.434C152.084 108.219 152.35 107.981 152.574 107.72V109.68C152.163 110.016 151.72 110.273 151.244 110.45C150.768 110.627 150.171 110.716 149.452 110.716C148.733 110.716 148.061 110.595 147.436 110.352C146.82 110.109 146.283 109.759 145.826 109.302C145.369 108.845 145.009 108.308 144.748 107.692C144.496 107.067 144.37 106.385 144.37 105.648C144.37 104.911 144.496 104.234 144.748 103.618C145.009 102.993 145.369 102.451 145.826 101.994C146.283 101.537 146.82 101.187 147.436 100.944C148.061 100.701 148.733 100.58 149.452 100.58C150.171 100.58 150.768 100.669 151.244 100.846C151.72 101.023 152.163 101.28 152.574 101.616V103.576C152.35 103.315 152.084 103.081 151.776 102.876C151.477 102.661 151.141 102.493 150.768 102.372C150.395 102.251 149.975 102.19 149.508 102.19C148.911 102.19 148.355 102.335 147.842 102.624C147.338 102.904 146.927 103.305 146.61 103.828C146.302 104.341 146.148 104.948 146.148 105.648ZM153.91 100.748H155.562V110.548H153.91V100.748ZM154.89 102.204V100.748H156.864C157.573 100.748 158.189 100.874 158.712 101.126C159.244 101.369 159.654 101.719 159.944 102.176C160.233 102.624 160.378 103.161 160.378 103.786C160.378 104.411 160.233 104.953 159.944 105.41C159.654 105.867 159.244 106.222 158.712 106.474C158.189 106.717 157.573 106.838 156.864 106.838H154.89V105.382H156.864C157.433 105.382 157.89 105.247 158.236 104.976C158.581 104.705 158.754 104.309 158.754 103.786C158.754 103.263 158.581 102.871 158.236 102.61C157.89 102.339 157.433 102.204 156.864 102.204H154.89Z" fill="#222A41"/>
<path d="M191.681 106.964L191.961 105.494H194.719V106.964H191.681ZM193.893 100.748H195.587V110.548H193.893V100.748ZM190.239 100.748V103.45C190.239 103.851 190.305 104.206 190.435 104.514C190.575 104.813 190.771 105.051 191.023 105.228C191.285 105.405 191.597 105.494 191.961 105.494L191.681 106.964C191.019 106.964 190.454 106.815 189.987 106.516C189.53 106.208 189.185 105.797 188.951 105.284C188.727 104.771 188.615 104.201 188.615 103.576V100.748H190.239ZM196.123 102.274V100.748H202.955V102.274H200.365V110.548H198.699V102.274H196.123Z" fill="#222A41"/>
<path d="M241.813 102.274H237.081V110.548H235.401V100.748H243.479V110.548H241.813V102.274ZM244.016 102.274V100.748H250.848V102.274H248.258V110.548H246.592V102.274H244.016Z" fill="#222A41"/>
<path d="M282.238 105.648C282.238 106.339 282.392 106.945 282.7 107.468C283.017 107.991 283.428 108.397 283.932 108.686C284.445 108.966 285 109.106 285.598 109.106C286.064 109.106 286.484 109.045 286.858 108.924C287.231 108.803 287.567 108.639 287.866 108.434C288.174 108.219 288.44 107.981 288.664 107.72V109.68C288.253 110.016 287.81 110.273 287.334 110.45C286.858 110.627 286.26 110.716 285.542 110.716C284.823 110.716 284.151 110.595 283.526 110.352C282.91 110.109 282.373 109.759 281.916 109.302C281.458 108.845 281.099 108.308 280.838 107.692C280.586 107.067 280.46 106.385 280.46 105.648C280.46 104.911 280.586 104.234 280.838 103.618C281.099 102.993 281.458 102.451 281.916 101.994C282.373 101.537 282.91 101.187 283.526 100.944C284.151 100.701 284.823 100.58 285.542 100.58C286.26 100.58 286.858 100.669 287.334 100.846C287.81 101.023 288.253 101.28 288.664 101.616V103.576C288.44 103.315 288.174 103.081 287.866 102.876C287.567 102.661 287.231 102.493 286.858 102.372C286.484 102.251 286.064 102.19 285.598 102.19C285 102.19 284.445 102.335 283.932 102.624C283.428 102.904 283.017 103.305 282.7 103.828C282.392 104.341 282.238 104.948 282.238 105.648ZM290.685 106.012V104.584H293.387C294.022 104.584 294.587 104.705 295.081 104.948C295.585 105.191 295.982 105.536 296.271 105.984C296.57 106.423 296.719 106.945 296.719 107.552C296.719 108.149 296.57 108.677 296.271 109.134C295.982 109.582 295.585 109.932 295.081 110.184C294.587 110.427 294.022 110.548 293.387 110.548H290.685V109.092H293.177C293.551 109.092 293.877 109.036 294.157 108.924C294.437 108.812 294.652 108.644 294.801 108.42C294.96 108.187 295.039 107.897 295.039 107.552C295.039 107.207 294.96 106.922 294.801 106.698C294.652 106.465 294.437 106.292 294.157 106.18C293.877 106.068 293.551 106.012 293.177 106.012H290.685ZM290.027 100.748H295.977V102.204H291.707V110.548H290.027V100.748Z" fill="#222A41"/>
<path d="M327.098 105.494V104.682H328.68C328.988 104.682 329.259 104.631 329.492 104.528C329.725 104.425 329.907 104.281 330.038 104.094C330.169 103.898 330.234 103.665 330.234 103.394C330.234 102.983 330.089 102.666 329.8 102.442C329.511 102.218 329.137 102.106 328.68 102.106H327.49V109.19H328.862C329.235 109.19 329.567 109.129 329.856 109.008C330.145 108.887 330.374 108.705 330.542 108.462C330.71 108.219 330.794 107.916 330.794 107.552C330.794 107.291 330.743 107.062 330.64 106.866C330.547 106.661 330.411 106.493 330.234 106.362C330.066 106.222 329.865 106.124 329.632 106.068C329.399 106.003 329.142 105.97 328.862 105.97H327.098V105.06H328.96C329.436 105.06 329.884 105.111 330.304 105.214C330.724 105.317 331.097 105.475 331.424 105.69C331.76 105.905 332.021 106.18 332.208 106.516C332.395 106.852 332.488 107.253 332.488 107.72C332.488 108.364 332.334 108.896 332.026 109.316C331.727 109.736 331.312 110.049 330.78 110.254C330.257 110.45 329.651 110.548 328.96 110.548H325.838V100.748H328.792C329.408 100.748 329.949 100.837 330.416 101.014C330.892 101.191 331.261 101.462 331.522 101.826C331.793 102.19 331.928 102.652 331.928 103.212C331.928 103.697 331.793 104.113 331.522 104.458C331.261 104.794 330.892 105.051 330.416 105.228C329.949 105.405 329.408 105.494 328.792 105.494H327.098ZM334.751 105.648C334.751 106.339 334.905 106.945 335.213 107.468C335.53 107.991 335.941 108.397 336.445 108.686C336.958 108.966 337.513 109.106 338.111 109.106C338.577 109.106 338.997 109.045 339.371 108.924C339.744 108.803 340.08 108.639 340.379 108.434C340.687 108.219 340.953 107.981 341.177 107.72V109.68C340.766 110.016 340.323 110.273 339.847 110.45C339.371 110.627 338.773 110.716 338.055 110.716C337.336 110.716 336.664 110.595 336.039 110.352C335.423 110.109 334.886 109.759 334.429 109.302C333.971 108.845 333.612 108.308 333.351 107.692C333.099 107.067 332.973 106.385 332.973 105.648C332.973 104.911 333.099 104.234 333.351 103.618C333.612 102.993 333.971 102.451 334.429 101.994C334.886 101.537 335.423 101.187 336.039 100.944C336.664 100.701 337.336 100.58 338.055 100.58C338.773 100.58 339.371 100.669 339.847 100.846C340.323 101.023 340.766 101.28 341.177 101.616V103.576C340.953 103.315 340.687 103.081 340.379 102.876C340.08 102.661 339.744 102.493 339.371 102.372C338.997 102.251 338.577 102.19 338.111 102.19C337.513 102.19 336.958 102.335 336.445 102.624C335.941 102.904 335.53 103.305 335.213 103.828C334.905 104.341 334.751 104.948 334.751 105.648Z" fill="#222A41"/>
<path d="M284.308 143.067L288.886 138.237C289.101 137.994 289.292 137.756 289.46 137.523C289.637 137.29 289.773 137.042 289.866 136.781C289.969 136.51 290.02 136.221 290.02 135.913C290.02 135.67 289.978 135.428 289.894 135.185C289.81 134.942 289.679 134.723 289.502 134.527C289.325 134.322 289.101 134.158 288.83 134.037C288.569 133.906 288.256 133.841 287.892 133.841C287.416 133.841 287.005 133.958 286.66 134.191C286.315 134.415 286.049 134.737 285.862 135.157C285.675 135.577 285.582 136.067 285.582 136.627H284.812C284.812 135.927 284.933 135.316 285.176 134.793C285.428 134.261 285.783 133.85 286.24 133.561C286.707 133.262 287.257 133.113 287.892 133.113C288.405 133.113 288.844 133.202 289.208 133.379C289.581 133.556 289.885 133.785 290.118 134.065C290.361 134.336 290.538 134.634 290.65 134.961C290.762 135.278 290.818 135.586 290.818 135.885C290.818 136.417 290.687 136.916 290.426 137.383C290.174 137.85 289.861 138.274 289.488 138.657L285.918 142.339H291V143.067H284.308Z" fill="#222A41"/>
<path d="M332.514 138.139V137.635C332.831 137.635 333.13 137.588 333.41 137.495C333.69 137.402 333.937 137.271 334.152 137.103C334.376 136.935 334.549 136.734 334.67 136.501C334.801 136.258 334.866 135.992 334.866 135.703C334.866 135.367 334.791 135.059 334.642 134.779C334.502 134.49 334.292 134.261 334.012 134.093C333.741 133.916 333.405 133.827 333.004 133.827C332.416 133.827 331.94 134.004 331.576 134.359C331.212 134.714 331.03 135.162 331.03 135.703H330.288C330.288 135.19 330.4 134.742 330.624 134.359C330.857 133.976 331.175 133.678 331.576 133.463C331.987 133.239 332.458 133.127 332.99 133.127C333.55 133.127 334.026 133.248 334.418 133.491C334.819 133.734 335.123 134.046 335.328 134.429C335.543 134.812 335.65 135.227 335.65 135.675C335.65 136.151 335.505 136.576 335.216 136.949C334.936 137.322 334.558 137.616 334.082 137.831C333.615 138.036 333.093 138.139 332.514 138.139ZM332.934 143.207C332.458 143.207 332.029 143.137 331.646 142.997C331.273 142.857 330.951 142.666 330.68 142.423C330.419 142.171 330.218 141.882 330.078 141.555C329.938 141.219 329.868 140.86 329.868 140.477H330.652C330.652 140.86 330.741 141.205 330.918 141.513C331.105 141.812 331.371 142.05 331.716 142.227C332.061 142.395 332.467 142.479 332.934 142.479C333.382 142.479 333.769 142.395 334.096 142.227C334.432 142.05 334.689 141.812 334.866 141.513C335.053 141.205 335.146 140.85 335.146 140.449C335.146 140.094 335.067 139.786 334.908 139.525C334.759 139.254 334.553 139.03 334.292 138.853C334.04 138.676 333.76 138.545 333.452 138.461C333.144 138.368 332.831 138.321 332.514 138.321V137.817C332.943 137.817 333.359 137.873 333.76 137.985C334.171 138.088 334.539 138.251 334.866 138.475C335.193 138.69 335.449 138.97 335.636 139.315C335.832 139.66 335.93 140.066 335.93 140.533C335.93 141.065 335.799 141.532 335.538 141.933C335.286 142.334 334.936 142.647 334.488 142.871C334.04 143.095 333.522 143.207 332.934 143.207Z" fill="#222A41"/>
<path d="M59.308 177.05L64.712 169.21H65.006V179.01H64.236V176.742V176.616V170.988L60.596 176.364H64.558H64.712H66.546V177.05H59.308Z" fill="#222A41"/>
<path d="M110.14 175.78C110.14 176.34 110.051 176.83 109.874 177.25C109.706 177.67 109.468 178.02 109.16 178.3C108.861 178.58 108.511 178.79 108.11 178.93C107.709 179.07 107.279 179.14 106.822 179.14C106.262 179.14 105.772 179.051 105.352 178.874C104.941 178.697 104.587 178.454 104.288 178.146C103.999 177.829 103.756 177.474 103.56 177.082L104.218 176.648C104.377 176.975 104.577 177.273 104.82 177.544C105.072 177.815 105.366 178.029 105.702 178.188C106.038 178.337 106.411 178.412 106.822 178.412C107.326 178.412 107.765 178.309 108.138 178.104C108.521 177.889 108.815 177.586 109.02 177.194C109.235 176.802 109.342 176.331 109.342 175.78C109.342 175.285 109.235 174.851 109.02 174.478C108.815 174.105 108.535 173.815 108.18 173.61C107.825 173.395 107.419 173.288 106.962 173.288C106.617 173.288 106.299 173.325 106.01 173.4C105.721 173.475 105.441 173.596 105.17 173.764C104.899 173.932 104.615 174.151 104.316 174.422L105.604 169.2H110.224V169.886H106.192L105.352 173.288C105.576 173.092 105.851 172.929 106.178 172.798C106.514 172.658 106.878 172.588 107.27 172.588C107.811 172.588 108.297 172.723 108.726 172.994C109.165 173.265 109.51 173.638 109.762 174.114C110.014 174.59 110.14 175.145 110.14 175.78Z" fill="#222A41"/>
<path d="M149.442 175.846C149.442 176.35 149.545 176.798 149.75 177.19C149.965 177.573 150.259 177.881 150.632 178.114C151.005 178.338 151.435 178.45 151.92 178.45C152.405 178.45 152.835 178.338 153.208 178.114C153.581 177.881 153.871 177.573 154.076 177.19C154.291 176.798 154.398 176.35 154.398 175.846C154.398 175.361 154.291 174.927 154.076 174.544C153.861 174.152 153.572 173.849 153.208 173.634C152.844 173.41 152.433 173.298 151.976 173.298C151.463 173.298 151.015 173.415 150.632 173.648C150.259 173.872 149.965 174.18 149.75 174.572C149.545 174.955 149.442 175.379 149.442 175.846ZM152.62 169.21H153.586L150.394 173.564L150.338 173.522C150.571 173.242 150.847 173.041 151.164 172.92C151.481 172.789 151.841 172.724 152.242 172.724C152.643 172.724 153.017 172.803 153.362 172.962C153.717 173.121 154.025 173.345 154.286 173.634C154.557 173.914 154.767 174.245 154.916 174.628C155.065 175.001 155.14 175.407 155.14 175.846C155.14 176.499 155 177.073 154.72 177.568C154.449 178.063 154.071 178.45 153.586 178.73C153.11 179.01 152.555 179.15 151.92 179.15C151.295 179.15 150.739 179.01 150.254 178.73C149.769 178.45 149.386 178.063 149.106 177.568C148.835 177.073 148.7 176.499 148.7 175.846C148.7 175.445 148.765 175.057 148.896 174.684C149.036 174.311 149.199 173.993 149.386 173.732L152.62 169.21Z" fill="#222A41"/>
<path d="M193.448 169.938V169.21H200.196L195.31 179.01H194.498L199.034 169.938H193.448Z" fill="#222A41"/>
<path d="M240.148 171.52C240.148 171.072 240.26 170.666 240.484 170.302C240.717 169.929 241.025 169.63 241.408 169.406C241.8 169.182 242.243 169.07 242.738 169.07C243.233 169.07 243.671 169.182 244.054 169.406C244.446 169.63 244.754 169.929 244.978 170.302C245.211 170.666 245.328 171.072 245.328 171.52C245.328 171.884 245.258 172.22 245.118 172.528C244.987 172.827 244.805 173.083 244.572 173.298C244.339 173.513 244.063 173.681 243.746 173.802C243.438 173.914 243.102 173.97 242.738 173.97C242.374 173.97 242.033 173.914 241.716 173.802C241.408 173.681 241.137 173.513 240.904 173.298C240.671 173.083 240.484 172.827 240.344 172.528C240.213 172.22 240.148 171.884 240.148 171.52ZM240.89 171.604C240.89 171.968 240.979 172.29 241.156 172.57C241.343 172.85 241.576 173.069 241.856 173.228C242.145 173.387 242.439 173.466 242.738 173.466C243.037 173.466 243.326 173.387 243.606 173.228C243.895 173.069 244.129 172.85 244.306 172.57C244.493 172.29 244.586 171.968 244.586 171.604C244.586 171.259 244.507 170.946 244.348 170.666C244.189 170.386 243.97 170.167 243.69 170.008C243.419 169.84 243.102 169.756 242.738 169.756C242.383 169.756 242.066 169.84 241.786 170.008C241.506 170.167 241.287 170.386 241.128 170.666C240.969 170.946 240.89 171.259 240.89 171.604ZM239.826 176.378C239.826 175.958 239.905 175.58 240.064 175.244C240.223 174.908 240.437 174.623 240.708 174.39C240.979 174.147 241.287 173.965 241.632 173.844C241.987 173.713 242.355 173.648 242.738 173.648C243.121 173.648 243.485 173.713 243.83 173.844C244.185 173.965 244.497 174.147 244.768 174.39C245.039 174.623 245.253 174.908 245.412 175.244C245.571 175.58 245.65 175.958 245.65 176.378C245.65 176.761 245.58 177.12 245.44 177.456C245.3 177.792 245.099 178.086 244.838 178.338C244.586 178.59 244.283 178.791 243.928 178.94C243.573 179.08 243.177 179.15 242.738 179.15C242.299 179.15 241.903 179.08 241.548 178.94C241.193 178.791 240.885 178.59 240.624 178.338C240.372 178.086 240.176 177.792 240.036 177.456C239.896 177.12 239.826 176.761 239.826 176.378ZM240.568 176.294C240.568 176.733 240.661 177.115 240.848 177.442C241.044 177.769 241.305 178.021 241.632 178.198C241.959 178.375 242.327 178.464 242.738 178.464C243.149 178.464 243.517 178.375 243.844 178.198C244.171 178.021 244.427 177.769 244.614 177.442C244.81 177.115 244.908 176.733 244.908 176.294C244.908 175.883 244.801 175.519 244.586 175.202C244.381 174.875 244.11 174.619 243.774 174.432C243.447 174.245 243.102 174.152 242.738 174.152C242.374 174.152 242.024 174.245 241.688 174.432C241.361 174.619 241.091 174.875 240.876 175.202C240.671 175.519 240.568 175.883 240.568 176.294Z" fill="#222A41"/>
<path d="M290.272 172.514C290.272 172.113 290.183 171.763 290.006 171.464C289.838 171.156 289.605 170.918 289.306 170.75C289.007 170.573 288.671 170.484 288.298 170.484C287.915 170.484 287.575 170.573 287.276 170.75C286.977 170.918 286.739 171.156 286.562 171.464C286.394 171.763 286.31 172.113 286.31 172.514C286.31 172.915 286.394 173.27 286.562 173.578C286.739 173.886 286.977 174.129 287.276 174.306C287.575 174.483 287.915 174.572 288.298 174.572C288.671 174.572 289.007 174.483 289.306 174.306C289.605 174.129 289.838 173.886 290.006 173.578C290.183 173.27 290.272 172.915 290.272 172.514ZM287.948 178.996H285.848L288.956 175.146L289.208 175.104C288.984 175.347 288.751 175.505 288.508 175.58C288.265 175.655 287.981 175.692 287.654 175.692C287.262 175.692 286.889 175.617 286.534 175.468C286.179 175.319 285.862 175.104 285.582 174.824C285.311 174.535 285.097 174.194 284.938 173.802C284.779 173.41 284.7 172.981 284.7 172.514C284.7 171.786 284.859 171.165 285.176 170.652C285.503 170.129 285.937 169.733 286.478 169.462C287.019 169.182 287.626 169.042 288.298 169.042C288.97 169.042 289.577 169.182 290.118 169.462C290.659 169.733 291.089 170.129 291.406 170.652C291.723 171.165 291.882 171.786 291.882 172.514C291.882 172.971 291.803 173.391 291.644 173.774C291.495 174.157 291.299 174.507 291.056 174.824L287.948 178.996Z" fill="#222A41"/>
<path d="M327.05 171.506V169.938L330.956 169.056V179.01H329.318V170.876L327.05 171.506ZM334.115 174.11C334.115 174.633 334.166 175.113 334.269 175.552C334.372 175.991 334.516 176.369 334.703 176.686C334.899 177.003 335.132 177.251 335.403 177.428C335.674 177.596 335.972 177.68 336.299 177.68C336.644 177.68 336.948 177.596 337.209 177.428C337.48 177.251 337.708 177.003 337.895 176.686C338.091 176.369 338.24 175.991 338.343 175.552C338.446 175.113 338.497 174.633 338.497 174.11C338.497 173.587 338.446 173.107 338.343 172.668C338.24 172.229 338.091 171.851 337.895 171.534C337.708 171.217 337.48 170.974 337.209 170.806C336.948 170.629 336.644 170.54 336.299 170.54C335.972 170.54 335.674 170.629 335.403 170.806C335.132 170.974 334.899 171.217 334.703 171.534C334.516 171.851 334.372 172.229 334.269 172.668C334.166 173.107 334.115 173.587 334.115 174.11ZM332.491 174.11C332.491 173.093 332.65 172.206 332.967 171.45C333.294 170.694 333.742 170.106 334.311 169.686C334.89 169.266 335.552 169.056 336.299 169.056C337.064 169.056 337.732 169.266 338.301 169.686C338.88 170.106 339.328 170.694 339.645 171.45C339.962 172.206 340.121 173.093 340.121 174.11C340.121 175.127 339.962 176.014 339.645 176.77C339.328 177.526 338.88 178.114 338.301 178.534C337.732 178.954 337.064 179.164 336.299 179.164C335.552 179.164 334.89 178.954 334.311 178.534C333.742 178.114 333.294 177.526 332.967 176.77C332.65 176.014 332.491 175.127 332.491 174.11Z" fill="#222A41"/>
<path d="M57.05 207.448V205.88L60.956 204.998V214.952H59.318V206.818L57.05 207.448ZM62.9809 207.448V205.88L66.8869 204.998V214.952H65.2489V206.818L62.9809 207.448Z" fill="#222A41"/>
<path d="M101.271 207.448V205.88L105.177 204.998V214.952H103.539V206.818L101.271 207.448ZM106.432 214.952L110.968 210.178C111.201 209.926 111.402 209.683 111.57 209.45C111.738 209.217 111.864 208.983 111.948 208.75C112.032 208.517 112.074 208.269 112.074 208.008C112.074 207.821 112.036 207.639 111.962 207.462C111.896 207.275 111.789 207.107 111.64 206.958C111.5 206.809 111.327 206.692 111.122 206.608C110.916 206.515 110.678 206.468 110.408 206.468C110.034 206.468 109.712 206.557 109.442 206.734C109.171 206.902 108.961 207.149 108.812 207.476C108.672 207.803 108.602 208.181 108.602 208.61H106.964C106.964 207.91 107.094 207.289 107.356 206.748C107.626 206.197 108.018 205.768 108.532 205.46C109.054 205.143 109.689 204.984 110.436 204.984C111.005 204.984 111.5 205.077 111.92 205.264C112.34 205.441 112.685 205.675 112.956 205.964C113.236 206.253 113.441 206.571 113.572 206.916C113.712 207.261 113.782 207.597 113.782 207.924C113.782 208.437 113.656 208.932 113.404 209.408C113.161 209.884 112.839 210.309 112.438 210.682L109.652 213.412H113.908V214.952H106.432Z" fill="#222A41"/>
<path d="M146.05 207.448V205.88L149.956 204.998V214.952H148.318V206.818L146.05 207.448ZM154.599 210.15V209.268C154.898 209.268 155.164 209.231 155.397 209.156C155.63 209.072 155.826 208.96 155.985 208.82C156.153 208.68 156.279 208.517 156.363 208.33C156.456 208.134 156.503 207.933 156.503 207.728C156.503 207.467 156.452 207.238 156.349 207.042C156.246 206.837 156.097 206.678 155.901 206.566C155.705 206.454 155.462 206.398 155.173 206.398C154.744 206.398 154.384 206.529 154.095 206.79C153.815 207.042 153.675 207.364 153.675 207.756H152.121C152.121 207.215 152.247 206.739 152.499 206.328C152.76 205.917 153.12 205.595 153.577 205.362C154.034 205.119 154.562 204.998 155.159 204.998C155.794 204.998 156.335 205.119 156.783 205.362C157.231 205.605 157.572 205.927 157.805 206.328C158.048 206.72 158.169 207.159 158.169 207.644C158.169 208.139 158.015 208.577 157.707 208.96C157.399 209.343 156.974 209.637 156.433 209.842C155.901 210.047 155.29 210.15 154.599 210.15ZM155.089 215.12C154.566 215.12 154.095 215.045 153.675 214.896C153.255 214.737 152.9 214.523 152.611 214.252C152.322 213.972 152.098 213.655 151.939 213.3C151.78 212.936 151.701 212.553 151.701 212.152H153.353C153.353 212.469 153.428 212.745 153.577 212.978C153.736 213.202 153.95 213.379 154.221 213.51C154.492 213.631 154.79 213.692 155.117 213.692C155.453 213.692 155.742 213.631 155.985 213.51C156.237 213.389 156.433 213.216 156.573 212.992C156.713 212.759 156.783 212.479 156.783 212.152C156.783 211.891 156.732 211.657 156.629 211.452C156.526 211.247 156.377 211.074 156.181 210.934C155.994 210.794 155.766 210.687 155.495 210.612C155.224 210.537 154.926 210.5 154.599 210.5V209.562C155.14 209.562 155.644 209.618 156.111 209.73C156.578 209.833 156.984 209.996 157.329 210.22C157.684 210.435 157.959 210.719 158.155 211.074C158.351 211.419 158.449 211.839 158.449 212.334C158.449 212.885 158.309 213.37 158.029 213.79C157.749 214.21 157.357 214.537 156.853 214.77C156.349 215.003 155.761 215.12 155.089 215.12Z" fill="#222A41"/>
<path d="M189.712 207.496V205.928L193.618 205.046V215H191.98V206.866L189.712 207.496ZM194.845 213.124L200.375 205.2H201.369V215H199.675V212.536L199.773 212.382V208.154L197.267 211.822H200.669L200.907 211.696H202.909V213.124H194.845Z" fill="#222A41"/>
<path d="M237.05 207.448V205.88L240.956 204.998V214.952H239.318V206.818L237.05 207.448ZM249.715 211.76C249.715 212.329 249.617 212.824 249.421 213.244C249.225 213.664 248.954 214.014 248.609 214.294C248.264 214.565 247.872 214.77 247.433 214.91C247.004 215.041 246.551 215.106 246.075 215.106C245.478 215.106 244.95 215.027 244.493 214.868C244.036 214.709 243.639 214.499 243.303 214.238C242.967 213.967 242.673 213.678 242.421 213.37L243.387 212.18C243.583 212.432 243.812 212.665 244.073 212.88C244.344 213.085 244.633 213.253 244.941 213.384C245.249 213.505 245.557 213.566 245.865 213.566C246.313 213.566 246.691 213.491 246.999 213.342C247.307 213.193 247.54 212.973 247.699 212.684C247.867 212.395 247.951 212.054 247.951 211.662C247.951 211.261 247.858 210.92 247.671 210.64C247.484 210.36 247.232 210.145 246.915 209.996C246.598 209.847 246.248 209.772 245.865 209.772C245.585 209.772 245.305 209.795 245.025 209.842C244.754 209.879 244.474 209.954 244.185 210.066C243.905 210.178 243.597 210.337 243.261 210.542L244.591 205.152H249.617V206.608H245.837L245.221 208.848C245.464 208.727 245.716 208.638 245.977 208.582C246.238 208.526 246.504 208.498 246.775 208.498C247.316 208.498 247.811 208.633 248.259 208.904C248.707 209.175 249.062 209.553 249.323 210.038C249.584 210.523 249.715 211.097 249.715 211.76Z" fill="#222A41"/>
<path d="M282.155 207.448V205.88L286.061 204.998V214.952H284.423V206.818L282.155 207.448ZM289.346 211.648C289.346 212.049 289.43 212.404 289.598 212.712C289.776 213.011 290.014 213.249 290.312 213.426C290.611 213.594 290.952 213.678 291.334 213.678C291.708 213.678 292.044 213.594 292.342 213.426C292.641 213.249 292.874 213.011 293.042 212.712C293.22 212.404 293.308 212.049 293.308 211.648C293.308 211.247 293.22 210.892 293.042 210.584C292.874 210.267 292.641 210.024 292.342 209.856C292.044 209.679 291.708 209.59 291.334 209.59C290.952 209.59 290.611 209.679 290.312 209.856C290.014 210.024 289.776 210.267 289.598 210.584C289.43 210.892 289.346 211.247 289.346 211.648ZM291.67 205.166H293.77L290.662 209.016L290.424 209.058C290.639 208.815 290.868 208.657 291.11 208.582C291.353 208.507 291.642 208.47 291.978 208.47C292.361 208.47 292.73 208.545 293.084 208.694C293.439 208.843 293.752 209.063 294.022 209.352C294.302 209.632 294.522 209.968 294.68 210.36C294.839 210.752 294.918 211.181 294.918 211.648C294.918 212.367 294.76 212.987 294.442 213.51C294.125 214.033 293.696 214.434 293.154 214.714C292.613 214.985 292.006 215.12 291.334 215.12C290.662 215.12 290.056 214.985 289.514 214.714C288.973 214.434 288.539 214.033 288.212 213.51C287.895 212.987 287.736 212.367 287.736 211.648C287.736 211.191 287.811 210.771 287.96 210.388C288.119 210.005 288.32 209.655 288.562 209.338L291.67 205.166Z" fill="#222A41"/>
<path d="M327.12 207.084V205.852L330.48 205.012V214.952H329.29V206.44L327.12 207.084ZM332.023 206.272V205.152H338.883L334.193 214.952H332.947L337.105 206.272H332.023Z" fill="#222A41"/>
<path d="M57.12 243.026V241.794L60.48 240.954V250.894H59.29V242.382L57.12 243.026ZM62.7227 243.46C62.7227 242.993 62.8394 242.573 63.0727 242.2C63.3154 241.817 63.6374 241.514 64.0387 241.29C64.4494 241.066 64.9114 240.954 65.4247 240.954C65.9381 240.954 66.3954 241.066 66.7967 241.29C67.2074 241.514 67.5294 241.817 67.7627 242.2C68.0054 242.573 68.1267 242.993 68.1267 243.46C68.1267 243.843 68.0614 244.188 67.9307 244.496C67.8001 244.795 67.6134 245.051 67.3707 245.266C67.1374 245.481 66.8527 245.644 66.5167 245.756C66.1901 245.868 65.8261 245.924 65.4247 245.924C65.0234 245.924 64.6547 245.868 64.3187 245.756C63.9921 245.644 63.7074 245.481 63.4647 245.266C63.2314 245.051 63.0494 244.795 62.9187 244.496C62.7881 244.188 62.7227 243.843 62.7227 243.46ZM63.8567 243.6C63.8567 243.908 63.9267 244.179 64.0667 244.412C64.2161 244.645 64.4074 244.827 64.6407 244.958C64.8834 245.089 65.1447 245.154 65.4247 245.154C65.7047 245.154 65.9614 245.089 66.1947 244.958C66.4374 244.827 66.6287 244.645 66.7687 244.412C66.9181 244.179 66.9927 243.908 66.9927 243.6C66.9927 243.292 66.9227 243.017 66.7827 242.774C66.6521 242.531 66.4701 242.345 66.2367 242.214C66.0034 242.074 65.7327 242.004 65.4247 242.004C65.1261 242.004 64.8554 242.074 64.6127 242.214C64.3794 242.345 64.1927 242.531 64.0527 242.774C63.9221 243.017 63.8567 243.292 63.8567 243.6ZM62.3727 248.234C62.3727 247.786 62.4521 247.389 62.6107 247.044C62.7787 246.689 63.0027 246.395 63.2827 246.162C63.5721 245.919 63.8987 245.737 64.2627 245.616C64.6361 245.495 65.0234 245.434 65.4247 245.434C65.8261 245.434 66.2087 245.495 66.5727 245.616C66.9461 245.737 67.2727 245.919 67.5527 246.162C67.8421 246.395 68.0661 246.689 68.2247 247.044C68.3927 247.389 68.4767 247.786 68.4767 248.234C68.4767 248.617 68.3974 248.976 68.2387 249.312C68.0894 249.648 67.8747 249.947 67.5947 250.208C67.3241 250.469 67.0021 250.675 66.6287 250.824C66.2647 250.964 65.8634 251.034 65.4247 251.034C64.9861 251.034 64.5801 250.964 64.2067 250.824C63.8427 250.675 63.5207 250.469 63.2407 250.208C62.9701 249.947 62.7554 249.648 62.5967 249.312C62.4474 248.976 62.3727 248.617 62.3727 248.234ZM63.5067 248.094C63.5067 248.495 63.5954 248.836 63.7727 249.116C63.9594 249.396 64.1974 249.611 64.4867 249.76C64.7854 249.909 65.0981 249.984 65.4247 249.984C65.7514 249.984 66.0594 249.909 66.3487 249.76C66.6474 249.611 66.8854 249.396 67.0627 249.116C67.2494 248.836 67.3427 248.495 67.3427 248.094C67.3427 247.739 67.2494 247.422 67.0627 247.142C66.8854 246.853 66.6474 246.624 66.3487 246.456C66.0594 246.288 65.7514 246.204 65.4247 246.204C65.0981 246.204 64.7854 246.288 64.4867 246.456C64.1974 246.624 63.9594 246.853 63.7727 247.142C63.5954 247.422 63.5067 247.739 63.5067 248.094Z" fill="#222A41"/>
<path d="M101.341 243.026V241.794L104.701 240.954V250.894H103.511V242.382L101.341 243.026ZM112.053 244.314C112.053 243.866 111.955 243.474 111.759 243.138C111.573 242.793 111.311 242.522 110.975 242.326C110.649 242.13 110.275 242.032 109.855 242.032C109.435 242.032 109.057 242.13 108.721 242.326C108.395 242.522 108.133 242.793 107.937 243.138C107.751 243.474 107.657 243.866 107.657 244.314C107.657 244.762 107.751 245.159 107.937 245.504C108.133 245.85 108.395 246.125 108.721 246.33C109.057 246.526 109.435 246.624 109.855 246.624C110.275 246.624 110.649 246.526 110.975 246.33C111.311 246.125 111.573 245.85 111.759 245.504C111.955 245.159 112.053 244.762 112.053 244.314ZM109.267 250.894H107.769L110.835 246.848L110.919 246.918C110.733 247.152 110.513 247.306 110.261 247.38C110.019 247.455 109.739 247.492 109.421 247.492C109.02 247.492 108.642 247.413 108.287 247.254C107.942 247.096 107.634 246.872 107.363 246.582C107.102 246.293 106.897 245.957 106.747 245.574C106.598 245.182 106.523 244.762 106.523 244.314C106.523 243.642 106.668 243.054 106.957 242.55C107.256 242.046 107.657 241.654 108.161 241.374C108.665 241.094 109.23 240.954 109.855 240.954C110.49 240.954 111.055 241.094 111.549 241.374C112.053 241.654 112.45 242.046 112.739 242.55C113.038 243.054 113.187 243.642 113.187 244.314C113.187 244.716 113.131 245.089 113.019 245.434C112.907 245.78 112.758 246.083 112.571 246.344L109.267 250.894Z" fill="#222A41"/>
<path d="M145.28 250.894L149.914 245.952C150.129 245.719 150.311 245.49 150.46 245.266C150.619 245.033 150.735 244.8 150.81 244.566C150.894 244.324 150.936 244.072 150.936 243.81C150.936 243.596 150.894 243.386 150.81 243.18C150.726 242.975 150.6 242.788 150.432 242.62C150.273 242.452 150.077 242.317 149.844 242.214C149.611 242.112 149.345 242.06 149.046 242.06C148.626 242.06 148.262 242.158 147.954 242.354C147.655 242.541 147.427 242.816 147.268 243.18C147.109 243.535 147.03 243.96 147.03 244.454H145.84C145.84 243.754 145.966 243.143 146.218 242.62C146.47 242.088 146.834 241.678 147.31 241.388C147.795 241.09 148.374 240.94 149.046 240.94C149.587 240.94 150.054 241.034 150.446 241.22C150.838 241.398 151.16 241.631 151.412 241.92C151.664 242.2 151.851 242.504 151.972 242.83C152.093 243.157 152.154 243.47 152.154 243.768C152.154 244.272 152.033 244.772 151.79 245.266C151.547 245.761 151.235 246.204 150.852 246.596L147.73 249.774H152.196V250.894H145.28ZM154.021 245.994C154.021 246.564 154.077 247.091 154.189 247.576C154.301 248.052 154.464 248.468 154.679 248.822C154.893 249.168 155.15 249.438 155.449 249.634C155.757 249.821 156.097 249.914 156.471 249.914C156.853 249.914 157.194 249.821 157.493 249.634C157.791 249.438 158.048 249.168 158.263 248.822C158.477 248.468 158.641 248.052 158.753 247.576C158.865 247.091 158.921 246.564 158.921 245.994C158.921 245.425 158.865 244.902 158.753 244.426C158.641 243.941 158.477 243.526 158.263 243.18C158.048 242.826 157.791 242.555 157.493 242.368C157.194 242.172 156.853 242.074 156.471 242.074C156.097 242.074 155.757 242.172 155.449 242.368C155.15 242.555 154.893 242.826 154.679 243.18C154.464 243.526 154.301 243.941 154.189 244.426C154.077 244.902 154.021 245.425 154.021 245.994ZM152.831 245.994C152.831 245.014 152.985 244.146 153.293 243.39C153.601 242.634 154.025 242.042 154.567 241.612C155.117 241.174 155.752 240.954 156.471 240.954C157.189 240.954 157.819 241.174 158.361 241.612C158.911 242.042 159.341 242.634 159.649 243.39C159.957 244.146 160.111 245.014 160.111 245.994C160.111 246.974 159.957 247.842 159.649 248.598C159.341 249.354 158.911 249.952 158.361 250.39C157.819 250.82 157.189 251.034 156.471 251.034C155.752 251.034 155.117 250.82 154.567 250.39C154.025 249.952 153.601 249.354 153.293 248.598C152.985 247.842 152.831 246.974 152.831 245.994Z" fill="#222A41"/>
<path d="M188.942 250.942L193.576 246C193.791 245.767 193.973 245.538 194.122 245.314C194.281 245.081 194.397 244.848 194.472 244.614C194.556 244.372 194.598 244.12 194.598 243.858C194.598 243.644 194.556 243.434 194.472 243.228C194.388 243.023 194.262 242.836 194.094 242.668C193.935 242.5 193.739 242.365 193.506 242.262C193.273 242.16 193.007 242.108 192.708 242.108C192.288 242.108 191.924 242.206 191.616 242.402C191.317 242.589 191.089 242.864 190.93 243.228C190.771 243.583 190.692 244.008 190.692 244.502H189.502C189.502 243.802 189.628 243.191 189.88 242.668C190.132 242.136 190.496 241.726 190.972 241.436C191.457 241.138 192.036 240.988 192.708 240.988C193.249 240.988 193.716 241.082 194.108 241.268C194.5 241.446 194.822 241.679 195.074 241.968C195.326 242.248 195.513 242.552 195.634 242.878C195.755 243.205 195.816 243.518 195.816 243.816C195.816 244.32 195.695 244.82 195.452 245.314C195.209 245.809 194.897 246.252 194.514 246.644L191.392 249.822H195.858V250.942H188.942ZM197.053 243.074V241.842L200.413 241.002V250.942H199.223V242.43L197.053 243.074Z" fill="#222A41"/>
<path d="M236.28 250.894L240.914 245.952C241.129 245.719 241.311 245.49 241.46 245.266C241.619 245.033 241.735 244.8 241.81 244.566C241.894 244.324 241.936 244.072 241.936 243.81C241.936 243.596 241.894 243.386 241.81 243.18C241.726 242.975 241.6 242.788 241.432 242.62C241.273 242.452 241.077 242.317 240.844 242.214C240.611 242.112 240.345 242.06 240.046 242.06C239.626 242.06 239.262 242.158 238.954 242.354C238.655 242.541 238.427 242.816 238.268 243.18C238.109 243.535 238.03 243.96 238.03 244.454H236.84C236.84 243.754 236.966 243.143 237.218 242.62C237.47 242.088 237.834 241.678 238.31 241.388C238.795 241.09 239.374 240.94 240.046 240.94C240.587 240.94 241.054 241.034 241.446 241.22C241.838 241.398 242.16 241.631 242.412 241.92C242.664 242.2 242.851 242.504 242.972 242.83C243.093 243.157 243.154 243.47 243.154 243.768C243.154 244.272 243.033 244.772 242.79 245.266C242.547 245.761 242.235 246.204 241.852 246.596L238.73 249.774H243.196V250.894H236.28ZM243.551 250.894L248.185 245.952C248.399 245.719 248.581 245.49 248.731 245.266C248.889 245.033 249.006 244.8 249.081 244.566C249.165 244.324 249.207 244.072 249.207 243.81C249.207 243.596 249.165 243.386 249.081 243.18C248.997 242.975 248.871 242.788 248.703 242.62C248.544 242.452 248.348 242.317 248.115 242.214C247.881 242.112 247.615 242.06 247.317 242.06C246.897 242.06 246.533 242.158 246.225 242.354C245.926 242.541 245.697 242.816 245.539 243.18C245.38 243.535 245.301 243.96 245.301 244.454H244.111C244.111 243.754 244.237 243.143 244.489 242.62C244.741 242.088 245.105 241.678 245.581 241.388C246.066 241.09 246.645 240.94 247.317 240.94C247.858 240.94 248.325 241.034 248.717 241.22C249.109 241.398 249.431 241.631 249.683 241.92C249.935 242.2 250.121 242.504 250.243 242.83C250.364 243.157 250.425 243.47 250.425 243.768C250.425 244.272 250.303 244.772 250.061 245.266C249.818 245.761 249.505 246.204 249.123 246.596L246.001 249.774H250.467V250.894H243.551Z" fill="#222A41"/>
<path d="M281.385 250.894L286.019 245.952C286.234 245.719 286.416 245.49 286.565 245.266C286.724 245.033 286.841 244.8 286.915 244.566C286.999 244.324 287.041 244.072 287.041 243.81C287.041 243.596 286.999 243.386 286.915 243.18C286.831 242.975 286.705 242.788 286.537 242.62C286.379 242.452 286.183 242.317 285.949 242.214C285.716 242.112 285.45 242.06 285.151 242.06C284.731 242.06 284.367 242.158 284.059 242.354C283.761 242.541 283.532 242.816 283.373 243.18C283.215 243.535 283.135 243.96 283.135 244.454H281.945C281.945 243.754 282.071 243.143 282.323 242.62C282.575 242.088 282.939 241.678 283.415 241.388C283.901 241.09 284.479 240.94 285.151 240.94C285.693 240.94 286.159 241.034 286.551 241.22C286.943 241.398 287.265 241.631 287.517 241.92C287.769 242.2 287.956 242.504 288.077 242.83C288.199 243.157 288.259 243.47 288.259 243.768C288.259 244.272 288.138 244.772 287.895 245.266C287.653 245.761 287.34 246.204 286.957 246.596L283.835 249.774H288.301V250.894H281.385ZM291.918 246.064V245.294C292.236 245.294 292.516 245.252 292.758 245.168C293.001 245.075 293.206 244.954 293.374 244.804C293.542 244.646 293.668 244.464 293.752 244.258C293.846 244.053 293.892 243.834 293.892 243.6C293.892 243.292 293.836 243.022 293.724 242.788C293.612 242.546 293.444 242.359 293.22 242.228C293.006 242.098 292.735 242.032 292.408 242.032C291.951 242.032 291.564 242.177 291.246 242.466C290.929 242.746 290.77 243.101 290.77 243.53H289.636C289.636 243.017 289.753 242.569 289.986 242.186C290.229 241.804 290.556 241.505 290.966 241.29C291.386 241.066 291.862 240.954 292.394 240.954C292.954 240.954 293.435 241.076 293.836 241.318C294.247 241.561 294.56 241.878 294.774 242.27C294.998 242.662 295.11 243.092 295.11 243.558C295.11 244.016 294.975 244.436 294.704 244.818C294.434 245.201 294.06 245.504 293.584 245.728C293.108 245.952 292.553 246.064 291.918 246.064ZM292.338 251.034C291.862 251.034 291.433 250.964 291.05 250.824C290.668 250.684 290.341 250.493 290.07 250.25C289.8 249.998 289.59 249.709 289.44 249.382C289.291 249.046 289.216 248.687 289.216 248.304H290.42C290.42 248.612 290.5 248.888 290.658 249.13C290.826 249.373 291.055 249.564 291.344 249.704C291.634 249.844 291.965 249.914 292.338 249.914C292.712 249.914 293.034 249.844 293.304 249.704C293.584 249.555 293.799 249.35 293.948 249.088C294.098 248.827 294.172 248.519 294.172 248.164C294.172 247.866 294.112 247.604 293.99 247.38C293.878 247.147 293.72 246.956 293.514 246.806C293.309 246.648 293.071 246.531 292.8 246.456C292.53 246.382 292.236 246.344 291.918 246.344V245.574C292.394 245.574 292.838 245.626 293.248 245.728C293.668 245.831 294.037 245.994 294.354 246.218C294.681 246.433 294.933 246.713 295.11 247.058C295.297 247.404 295.39 247.819 295.39 248.304C295.39 248.855 295.255 249.336 294.984 249.746C294.723 250.157 294.364 250.474 293.906 250.698C293.449 250.922 292.926 251.034 292.338 251.034Z" fill="#222A41"/>
<path d="M326.308 250.894L330.886 246.064C331.101 245.822 331.292 245.584 331.46 245.35C331.637 245.117 331.773 244.87 331.866 244.608C331.969 244.338 332.02 244.048 332.02 243.74C332.02 243.498 331.978 243.255 331.894 243.012C331.81 242.77 331.679 242.55 331.502 242.354C331.325 242.149 331.101 241.986 330.83 241.864C330.569 241.734 330.256 241.668 329.892 241.668C329.416 241.668 329.005 241.785 328.66 242.018C328.315 242.242 328.049 242.564 327.862 242.984C327.675 243.404 327.582 243.894 327.582 244.454H326.812C326.812 243.754 326.933 243.143 327.176 242.62C327.428 242.088 327.783 241.678 328.24 241.388C328.707 241.09 329.257 240.94 329.892 240.94C330.405 240.94 330.844 241.029 331.208 241.206C331.581 241.384 331.885 241.612 332.118 241.892C332.361 242.163 332.538 242.462 332.65 242.788C332.762 243.106 332.818 243.414 332.818 243.712C332.818 244.244 332.687 244.744 332.426 245.21C332.174 245.677 331.861 246.102 331.488 246.484L327.918 250.166H333V250.894H326.308ZM333.264 248.934L338.668 241.094H338.962V250.894H338.192V248.626V248.5V242.872L334.552 248.248H338.514H338.668H340.502V248.934H333.264Z" fill="#222A41"/>
<path d="M56.308 286.836L60.886 282.006C61.1007 281.764 61.292 281.526 61.46 281.292C61.6373 281.059 61.7727 280.812 61.866 280.55C61.9687 280.28 62.02 279.99 62.02 279.682C62.02 279.44 61.978 279.197 61.894 278.954C61.81 278.712 61.6793 278.492 61.502 278.296C61.3247 278.091 61.1007 277.928 60.83 277.806C60.5687 277.676 60.256 277.61 59.892 277.61C59.416 277.61 59.0053 277.727 58.66 277.96C58.3147 278.184 58.0487 278.506 57.862 278.926C57.6753 279.346 57.582 279.836 57.582 280.396H56.812C56.812 279.696 56.9333 279.085 57.176 278.562C57.428 278.03 57.7827 277.62 58.24 277.33C58.7067 277.032 59.2573 276.882 59.892 276.882C60.4053 276.882 60.844 276.971 61.208 277.148C61.5813 277.326 61.8847 277.554 62.118 277.834C62.3607 278.105 62.538 278.404 62.65 278.73C62.762 279.048 62.818 279.356 62.818 279.654C62.818 280.186 62.6873 280.686 62.426 281.152C62.174 281.619 61.8613 282.044 61.488 282.426L57.918 286.108H63V286.836H56.308ZM70.0963 283.616C70.0963 284.176 70.0076 284.666 69.8303 285.086C69.6623 285.506 69.4243 285.856 69.1163 286.136C68.8176 286.416 68.4676 286.626 68.0663 286.766C67.6649 286.906 67.2356 286.976 66.7783 286.976C66.2183 286.976 65.7283 286.888 65.3083 286.71C64.8976 286.533 64.5429 286.29 64.2443 285.982C63.9549 285.665 63.7123 285.31 63.5163 284.918L64.1743 284.484C64.3329 284.811 64.5336 285.11 64.7763 285.38C65.0283 285.651 65.3223 285.866 65.6583 286.024C65.9943 286.174 66.3676 286.248 66.7783 286.248C67.2823 286.248 67.7209 286.146 68.0943 285.94C68.4769 285.726 68.7709 285.422 68.9763 285.03C69.1909 284.638 69.2983 284.167 69.2983 283.616C69.2983 283.122 69.1909 282.688 68.9763 282.314C68.7709 281.941 68.4909 281.652 68.1363 281.446C67.7816 281.232 67.3756 281.124 66.9183 281.124C66.5729 281.124 66.2556 281.162 65.9663 281.236C65.6769 281.311 65.3969 281.432 65.1263 281.6C64.8556 281.768 64.5709 281.988 64.2723 282.258L65.5603 277.036H70.1803V277.722H66.1483L65.3083 281.124C65.5323 280.928 65.8076 280.765 66.1343 280.634C66.4703 280.494 66.8343 280.424 67.2263 280.424C67.7676 280.424 68.2529 280.56 68.6823 280.83C69.1209 281.101 69.4663 281.474 69.7183 281.95C69.9703 282.426 70.0963 282.982 70.0963 283.616Z" fill="#222A41"/>
<path d="M100.529 286.836L105.107 282.006C105.321 281.764 105.513 281.526 105.681 281.292C105.858 281.059 105.993 280.812 106.087 280.55C106.189 280.28 106.241 279.99 106.241 279.682C106.241 279.44 106.199 279.197 106.115 278.954C106.031 278.712 105.9 278.492 105.723 278.296C105.545 278.091 105.321 277.928 105.051 277.806C104.789 277.676 104.477 277.61 104.113 277.61C103.637 277.61 103.226 277.727 102.881 277.96C102.535 278.184 102.269 278.506 102.083 278.926C101.896 279.346 101.803 279.836 101.803 280.396H101.033C101.033 279.696 101.154 279.085 101.397 278.562C101.649 278.03 102.003 277.62 102.461 277.33C102.927 277.032 103.478 276.882 104.113 276.882C104.626 276.882 105.065 276.971 105.429 277.148C105.802 277.326 106.105 277.554 106.339 277.834C106.581 278.105 106.759 278.404 106.871 278.73C106.983 279.048 107.039 279.356 107.039 279.654C107.039 280.186 106.908 280.686 106.647 281.152C106.395 281.619 106.082 282.044 105.709 282.426L102.139 286.108H107.221V286.836H100.529ZM108.619 283.672C108.619 284.176 108.722 284.624 108.927 285.016C109.142 285.399 109.436 285.707 109.809 285.94C110.182 286.164 110.612 286.276 111.097 286.276C111.582 286.276 112.012 286.164 112.385 285.94C112.758 285.707 113.048 285.399 113.253 285.016C113.468 284.624 113.575 284.176 113.575 283.672C113.575 283.187 113.468 282.753 113.253 282.37C113.038 281.978 112.749 281.675 112.385 281.46C112.021 281.236 111.61 281.124 111.153 281.124C110.64 281.124 110.192 281.241 109.809 281.474C109.436 281.698 109.142 282.006 108.927 282.398C108.722 282.781 108.619 283.206 108.619 283.672ZM111.797 277.036H112.763L109.571 281.39L109.515 281.348C109.748 281.068 110.024 280.868 110.341 280.746C110.658 280.616 111.018 280.55 111.419 280.55C111.82 280.55 112.194 280.63 112.539 280.788C112.894 280.947 113.202 281.171 113.463 281.46C113.734 281.74 113.944 282.072 114.093 282.454C114.242 282.828 114.317 283.234 114.317 283.672C114.317 284.326 114.177 284.9 113.897 285.394C113.626 285.889 113.248 286.276 112.763 286.556C112.287 286.836 111.732 286.976 111.097 286.976C110.472 286.976 109.916 286.836 109.431 286.556C108.946 286.276 108.563 285.889 108.283 285.394C108.012 284.9 107.877 284.326 107.877 283.672C107.877 283.271 107.942 282.884 108.073 282.51C108.213 282.137 108.376 281.82 108.563 281.558L111.797 277.036Z" fill="#222A41"/>
<path d="M145.308 286.836L149.886 282.006C150.101 281.764 150.292 281.526 150.46 281.292C150.637 281.059 150.773 280.812 150.866 280.55C150.969 280.28 151.02 279.99 151.02 279.682C151.02 279.44 150.978 279.197 150.894 278.954C150.81 278.712 150.679 278.492 150.502 278.296C150.325 278.091 150.101 277.928 149.83 277.806C149.569 277.676 149.256 277.61 148.892 277.61C148.416 277.61 148.005 277.727 147.66 277.96C147.315 278.184 147.049 278.506 146.862 278.926C146.675 279.346 146.582 279.836 146.582 280.396H145.812C145.812 279.696 145.933 279.085 146.176 278.562C146.428 278.03 146.783 277.62 147.24 277.33C147.707 277.032 148.257 276.882 148.892 276.882C149.405 276.882 149.844 276.971 150.208 277.148C150.581 277.326 150.885 277.554 151.118 277.834C151.361 278.105 151.538 278.404 151.65 278.73C151.762 279.048 151.818 279.356 151.818 279.654C151.818 280.186 151.687 280.686 151.426 281.152C151.174 281.619 150.861 282.044 150.488 282.426L146.918 286.108H152V286.836H145.308ZM152.404 277.764V277.036H159.152L154.266 286.836H153.454L157.99 277.764H152.404Z" fill="#222A41"/>
<path d="M188.97 286.884L193.548 282.054C193.763 281.812 193.954 281.574 194.122 281.34C194.299 281.107 194.435 280.86 194.528 280.598C194.631 280.328 194.682 280.038 194.682 279.73C194.682 279.488 194.64 279.245 194.556 279.002C194.472 278.76 194.341 278.54 194.164 278.344C193.987 278.139 193.763 277.976 193.492 277.854C193.231 277.724 192.918 277.658 192.554 277.658C192.078 277.658 191.667 277.775 191.322 278.008C190.977 278.232 190.711 278.554 190.524 278.974C190.337 279.394 190.244 279.884 190.244 280.444H189.474C189.474 279.744 189.595 279.133 189.838 278.61C190.09 278.078 190.445 277.668 190.902 277.378C191.369 277.08 191.919 276.93 192.554 276.93C193.067 276.93 193.506 277.019 193.87 277.196C194.243 277.374 194.547 277.602 194.78 277.882C195.023 278.153 195.2 278.452 195.312 278.778C195.424 279.096 195.48 279.404 195.48 279.702C195.48 280.234 195.349 280.734 195.088 281.2C194.836 281.667 194.523 282.092 194.15 282.474L190.58 286.156H195.662V286.884H188.97ZM196.766 279.394C196.766 278.946 196.878 278.54 197.102 278.176C197.336 277.803 197.644 277.504 198.026 277.28C198.418 277.056 198.862 276.944 199.356 276.944C199.851 276.944 200.29 277.056 200.672 277.28C201.064 277.504 201.372 277.803 201.596 278.176C201.83 278.54 201.946 278.946 201.946 279.394C201.946 279.758 201.876 280.094 201.736 280.402C201.606 280.701 201.424 280.958 201.19 281.172C200.957 281.387 200.682 281.555 200.364 281.676C200.056 281.788 199.72 281.844 199.356 281.844C198.992 281.844 198.652 281.788 198.334 281.676C198.026 281.555 197.756 281.387 197.522 281.172C197.289 280.958 197.102 280.701 196.962 280.402C196.832 280.094 196.766 279.758 196.766 279.394ZM197.508 279.478C197.508 279.842 197.597 280.164 197.774 280.444C197.961 280.724 198.194 280.944 198.474 281.102C198.764 281.261 199.058 281.34 199.356 281.34C199.655 281.34 199.944 281.261 200.224 281.102C200.514 280.944 200.747 280.724 200.924 280.444C201.111 280.164 201.204 279.842 201.204 279.478C201.204 279.133 201.125 278.82 200.966 278.54C200.808 278.26 200.588 278.041 200.308 277.882C200.038 277.714 199.72 277.63 199.356 277.63C199.002 277.63 198.684 277.714 198.404 277.882C198.124 278.041 197.905 278.26 197.746 278.54C197.588 278.82 197.508 279.133 197.508 279.478ZM196.444 284.252C196.444 283.832 196.524 283.454 196.682 283.118C196.841 282.782 197.056 282.498 197.326 282.264C197.597 282.022 197.905 281.84 198.25 281.718C198.605 281.588 198.974 281.522 199.356 281.522C199.739 281.522 200.103 281.588 200.448 281.718C200.803 281.84 201.116 282.022 201.386 282.264C201.657 282.498 201.872 282.782 202.03 283.118C202.189 283.454 202.268 283.832 202.268 284.252C202.268 284.635 202.198 284.994 202.058 285.33C201.918 285.666 201.718 285.96 201.456 286.212C201.204 286.464 200.901 286.665 200.546 286.814C200.192 286.954 199.795 287.024 199.356 287.024C198.918 287.024 198.521 286.954 198.166 286.814C197.812 286.665 197.504 286.464 197.242 286.212C196.99 285.96 196.794 285.666 196.654 285.33C196.514 284.994 196.444 284.635 196.444 284.252ZM197.186 284.168C197.186 284.607 197.28 284.99 197.466 285.316C197.662 285.643 197.924 285.895 198.25 286.072C198.577 286.25 198.946 286.338 199.356 286.338C199.767 286.338 200.136 286.25 200.462 286.072C200.789 285.895 201.046 285.643 201.232 285.316C201.428 284.99 201.526 284.607 201.526 284.168C201.526 283.758 201.419 283.394 201.204 283.076C200.999 282.75 200.728 282.493 200.392 282.306C200.066 282.12 199.72 282.026 199.356 282.026C198.992 282.026 198.642 282.12 198.306 282.306C197.98 282.493 197.709 282.75 197.494 283.076C197.289 283.394 197.186 283.758 197.186 284.168Z" fill="#222A41"/>
<path d="M236.308 286.836L240.886 282.006C241.101 281.764 241.292 281.526 241.46 281.292C241.637 281.059 241.773 280.812 241.866 280.55C241.969 280.28 242.02 279.99 242.02 279.682C242.02 279.44 241.978 279.197 241.894 278.954C241.81 278.712 241.679 278.492 241.502 278.296C241.325 278.091 241.101 277.928 240.83 277.806C240.569 277.676 240.256 277.61 239.892 277.61C239.416 277.61 239.005 277.727 238.66 277.96C238.315 278.184 238.049 278.506 237.862 278.926C237.675 279.346 237.582 279.836 237.582 280.396H236.812C236.812 279.696 236.933 279.085 237.176 278.562C237.428 278.03 237.783 277.62 238.24 277.33C238.707 277.032 239.257 276.882 239.892 276.882C240.405 276.882 240.844 276.971 241.208 277.148C241.581 277.326 241.885 277.554 242.118 277.834C242.361 278.105 242.538 278.404 242.65 278.73C242.762 279.048 242.818 279.356 242.818 279.654C242.818 280.186 242.687 280.686 242.426 281.152C242.174 281.619 241.861 282.044 241.488 282.426L237.918 286.108H243V286.836H236.308ZM249.354 280.2C249.354 279.696 249.247 279.248 249.032 278.856C248.827 278.464 248.538 278.156 248.164 277.932C247.791 277.708 247.362 277.596 246.876 277.596C246.391 277.596 245.962 277.708 245.588 277.932C245.215 278.156 244.921 278.464 244.706 278.856C244.501 279.248 244.398 279.696 244.398 280.2C244.398 280.686 244.506 281.12 244.72 281.502C244.935 281.885 245.224 282.188 245.588 282.412C245.962 282.636 246.372 282.748 246.82 282.748C247.334 282.748 247.777 282.632 248.15 282.398C248.533 282.165 248.827 281.857 249.032 281.474C249.247 281.092 249.354 280.667 249.354 280.2ZM246.176 286.836H245.21L248.402 282.482L248.458 282.524C248.225 282.804 247.95 283.01 247.632 283.14C247.315 283.262 246.956 283.322 246.554 283.322C246.153 283.322 245.775 283.243 245.42 283.084C245.075 282.926 244.767 282.706 244.496 282.426C244.235 282.137 244.03 281.806 243.88 281.432C243.731 281.05 243.656 280.639 243.656 280.2C243.656 279.547 243.792 278.973 244.062 278.478C244.342 277.984 244.725 277.596 245.21 277.316C245.696 277.036 246.251 276.896 246.876 276.896C247.511 276.896 248.066 277.036 248.542 277.316C249.028 277.596 249.406 277.984 249.676 278.478C249.956 278.973 250.096 279.547 250.096 280.2C250.096 280.602 250.026 280.989 249.886 281.362C249.756 281.736 249.597 282.053 249.41 282.314L246.176 286.836Z" fill="#222A41"/>
<path d="M284.619 281.908V281.404C284.937 281.404 285.235 281.358 285.515 281.264C285.795 281.171 286.043 281.04 286.257 280.872C286.481 280.704 286.654 280.504 286.775 280.27C286.906 280.028 286.971 279.762 286.971 279.472C286.971 279.136 286.897 278.828 286.747 278.548C286.607 278.259 286.397 278.03 286.117 277.862C285.847 277.685 285.511 277.596 285.109 277.596C284.521 277.596 284.045 277.774 283.681 278.128C283.317 278.483 283.135 278.931 283.135 279.472H282.393C282.393 278.959 282.505 278.511 282.729 278.128C282.963 277.746 283.28 277.447 283.681 277.232C284.092 277.008 284.563 276.896 285.095 276.896C285.655 276.896 286.131 277.018 286.523 277.26C286.925 277.503 287.228 277.816 287.433 278.198C287.648 278.581 287.755 278.996 287.755 279.444C287.755 279.92 287.611 280.345 287.321 280.718C287.041 281.092 286.663 281.386 286.187 281.6C285.721 281.806 285.198 281.908 284.619 281.908ZM285.039 286.976C284.563 286.976 284.134 286.906 283.751 286.766C283.378 286.626 283.056 286.435 282.785 286.192C282.524 285.94 282.323 285.651 282.183 285.324C282.043 284.988 281.973 284.629 281.973 284.246H282.757C282.757 284.629 282.846 284.974 283.023 285.282C283.21 285.581 283.476 285.819 283.821 285.996C284.167 286.164 284.573 286.248 285.039 286.248C285.487 286.248 285.875 286.164 286.201 285.996C286.537 285.819 286.794 285.581 286.971 285.282C287.158 284.974 287.251 284.62 287.251 284.218C287.251 283.864 287.172 283.556 287.013 283.294C286.864 283.024 286.659 282.8 286.397 282.622C286.145 282.445 285.865 282.314 285.557 282.23C285.249 282.137 284.937 282.09 284.619 282.09V281.586C285.049 281.586 285.464 281.642 285.865 281.754C286.276 281.857 286.645 282.02 286.971 282.244C287.298 282.459 287.555 282.739 287.741 283.084C287.937 283.43 288.035 283.836 288.035 284.302C288.035 284.834 287.905 285.301 287.643 285.702C287.391 286.104 287.041 286.416 286.593 286.64C286.145 286.864 285.627 286.976 285.039 286.976ZM289.489 281.936C289.489 282.543 289.55 283.108 289.671 283.63C289.793 284.153 289.965 284.61 290.189 285.002C290.423 285.394 290.703 285.702 291.029 285.926C291.356 286.141 291.725 286.248 292.135 286.248C292.555 286.248 292.924 286.141 293.241 285.926C293.568 285.702 293.843 285.394 294.067 285.002C294.301 284.61 294.478 284.153 294.599 283.63C294.721 283.108 294.781 282.543 294.781 281.936C294.781 281.33 294.721 280.765 294.599 280.242C294.478 279.72 294.301 279.262 294.067 278.87C293.843 278.478 293.568 278.175 293.241 277.96C292.924 277.736 292.555 277.624 292.135 277.624C291.725 277.624 291.356 277.736 291.029 277.96C290.703 278.175 290.423 278.478 290.189 278.87C289.965 279.262 289.793 279.72 289.671 280.242C289.55 280.765 289.489 281.33 289.489 281.936ZM288.719 281.936C288.719 280.975 288.859 280.116 289.139 279.36C289.419 278.604 289.816 278.007 290.329 277.568C290.843 277.12 291.445 276.896 292.135 276.896C292.826 276.896 293.428 277.12 293.941 277.568C294.455 278.007 294.851 278.604 295.131 279.36C295.411 280.116 295.551 280.975 295.551 281.936C295.551 282.898 295.411 283.756 295.131 284.512C294.851 285.268 294.455 285.87 293.941 286.318C293.428 286.757 292.826 286.976 292.135 286.976C291.445 286.976 290.843 286.757 290.329 286.318C289.816 285.87 289.419 285.268 289.139 284.512C288.859 283.756 288.719 282.898 288.719 281.936Z" fill="#222A41"/>
<path d="M329.514 281.908V281.404C329.831 281.404 330.13 281.358 330.41 281.264C330.69 281.171 330.937 281.04 331.152 280.872C331.376 280.704 331.549 280.504 331.67 280.27C331.801 280.028 331.866 279.762 331.866 279.472C331.866 279.136 331.791 278.828 331.642 278.548C331.502 278.259 331.292 278.03 331.012 277.862C330.741 277.685 330.405 277.596 330.004 277.596C329.416 277.596 328.94 277.774 328.576 278.128C328.212 278.483 328.03 278.931 328.03 279.472H327.288C327.288 278.959 327.4 278.511 327.624 278.128C327.857 277.746 328.175 277.447 328.576 277.232C328.987 277.008 329.458 276.896 329.99 276.896C330.55 276.896 331.026 277.018 331.418 277.26C331.819 277.503 332.123 277.816 332.328 278.198C332.543 278.581 332.65 278.996 332.65 279.444C332.65 279.92 332.505 280.345 332.216 280.718C331.936 281.092 331.558 281.386 331.082 281.6C330.615 281.806 330.093 281.908 329.514 281.908ZM329.934 286.976C329.458 286.976 329.029 286.906 328.646 286.766C328.273 286.626 327.951 286.435 327.68 286.192C327.419 285.94 327.218 285.651 327.078 285.324C326.938 284.988 326.868 284.629 326.868 284.246H327.652C327.652 284.629 327.741 284.974 327.918 285.282C328.105 285.581 328.371 285.819 328.716 285.996C329.061 286.164 329.467 286.248 329.934 286.248C330.382 286.248 330.769 286.164 331.096 285.996C331.432 285.819 331.689 285.581 331.866 285.282C332.053 284.974 332.146 284.62 332.146 284.218C332.146 283.864 332.067 283.556 331.908 283.294C331.759 283.024 331.553 282.8 331.292 282.622C331.04 282.445 330.76 282.314 330.452 282.23C330.144 282.137 329.831 282.09 329.514 282.09V281.586C329.943 281.586 330.359 281.642 330.76 281.754C331.171 281.857 331.539 282.02 331.866 282.244C332.193 282.459 332.449 282.739 332.636 283.084C332.832 283.43 332.93 283.836 332.93 284.302C332.93 284.834 332.799 285.301 332.538 285.702C332.286 286.104 331.936 286.416 331.488 286.64C331.04 286.864 330.522 286.976 329.934 286.976ZM334.174 278.45V277.652L337.198 276.924V286.836H336.428V277.862L334.174 278.45Z" fill="#222A41"/>
<path d="M56.308 143.067L60.886 138.237C61.1007 137.994 61.292 137.756 61.46 137.523C61.6373 137.29 61.7727 137.042 61.866 136.781C61.9687 136.51 62.02 136.221 62.02 135.913C62.02 135.67 61.978 135.428 61.894 135.185C61.81 134.942 61.6793 134.723 61.502 134.527C61.3247 134.322 61.1007 134.158 60.83 134.037C60.5687 133.906 60.256 133.841 59.892 133.841C59.416 133.841 59.0053 133.958 58.66 134.191C58.3147 134.415 58.0487 134.737 57.862 135.157C57.6753 135.577 57.582 136.067 57.582 136.627H56.812C56.812 135.927 56.9333 135.316 57.176 134.793C57.428 134.261 57.7827 133.85 58.24 133.561C58.7067 133.262 59.2573 133.113 59.892 133.113C60.4053 133.113 60.844 133.202 61.208 133.379C61.5813 133.556 61.8847 133.785 62.118 134.065C62.3607 134.336 62.538 134.634 62.65 134.961C62.762 135.278 62.818 135.586 62.818 135.885C62.818 136.417 62.6873 136.916 62.426 137.383C62.174 137.85 61.8613 138.274 61.488 138.657L57.918 142.339H63V143.067H56.308ZM63.4043 133.995V133.267H70.1523L65.2663 143.067H64.4543L68.9903 133.995H63.4043Z" fill="#D9D9D9"/>
<path d="M99.5287 143L104.107 138.17C104.321 137.927 104.513 137.689 104.681 137.456C104.858 137.223 104.993 136.975 105.087 136.714C105.189 136.443 105.241 136.154 105.241 135.846C105.241 135.603 105.199 135.361 105.115 135.118C105.031 134.875 104.9 134.656 104.723 134.46C104.545 134.255 104.321 134.091 104.051 133.97C103.789 133.839 103.477 133.774 103.113 133.774C102.637 133.774 102.226 133.891 101.881 134.124C101.535 134.348 101.269 134.67 101.083 135.09C100.896 135.51 100.803 136 100.803 136.56H100.033C100.033 135.86 100.154 135.249 100.397 134.726C100.649 134.194 101.003 133.783 101.461 133.494C101.927 133.195 102.478 133.046 103.113 133.046C103.626 133.046 104.065 133.135 104.429 133.312C104.802 133.489 105.105 133.718 105.339 133.998C105.581 134.269 105.759 134.567 105.871 134.894C105.983 135.211 106.039 135.519 106.039 135.818C106.039 136.35 105.908 136.849 105.647 137.316C105.395 137.783 105.082 138.207 104.709 138.59L101.139 142.272H106.221V143H99.5287ZM107.325 135.51C107.325 135.062 107.437 134.656 107.661 134.292C107.894 133.919 108.202 133.62 108.585 133.396C108.977 133.172 109.42 133.06 109.915 133.06C110.41 133.06 110.848 133.172 111.231 133.396C111.623 133.62 111.931 133.919 112.155 134.292C112.388 134.656 112.505 135.062 112.505 135.51C112.505 135.874 112.435 136.21 112.295 136.518C112.164 136.817 111.982 137.073 111.749 137.288C111.516 137.503 111.24 137.671 110.923 137.792C110.615 137.904 110.279 137.96 109.915 137.96C109.551 137.96 109.21 137.904 108.893 137.792C108.585 137.671 108.314 137.503 108.081 137.288C107.848 137.073 107.661 136.817 107.521 136.518C107.39 136.21 107.325 135.874 107.325 135.51ZM108.067 135.594C108.067 135.958 108.156 136.28 108.333 136.56C108.52 136.84 108.753 137.059 109.033 137.218C109.322 137.377 109.616 137.456 109.915 137.456C110.214 137.456 110.503 137.377 110.783 137.218C111.072 137.059 111.306 136.84 111.483 136.56C111.67 136.28 111.763 135.958 111.763 135.594C111.763 135.249 111.684 134.936 111.525 134.656C111.366 134.376 111.147 134.157 110.867 133.998C110.596 133.83 110.279 133.746 109.915 133.746C109.56 133.746 109.243 133.83 108.963 133.998C108.683 134.157 108.464 134.376 108.305 134.656C108.146 134.936 108.067 135.249 108.067 135.594ZM107.003 140.368C107.003 139.948 107.082 139.57 107.241 139.234C107.4 138.898 107.614 138.613 107.885 138.38C108.156 138.137 108.464 137.955 108.809 137.834C109.164 137.703 109.532 137.638 109.915 137.638C110.298 137.638 110.662 137.703 111.007 137.834C111.362 137.955 111.674 138.137 111.945 138.38C112.216 138.613 112.43 138.898 112.589 139.234C112.748 139.57 112.827 139.948 112.827 140.368C112.827 140.751 112.757 141.11 112.617 141.446C112.477 141.782 112.276 142.076 112.015 142.328C111.763 142.58 111.46 142.781 111.105 142.93C110.75 143.07 110.354 143.14 109.915 143.14C109.476 143.14 109.08 143.07 108.725 142.93C108.37 142.781 108.062 142.58 107.801 142.328C107.549 142.076 107.353 141.782 107.213 141.446C107.073 141.11 107.003 140.751 107.003 140.368ZM107.745 140.284C107.745 140.723 107.838 141.105 108.025 141.432C108.221 141.759 108.482 142.011 108.809 142.188C109.136 142.365 109.504 142.454 109.915 142.454C110.326 142.454 110.694 142.365 111.021 142.188C111.348 142.011 111.604 141.759 111.791 141.432C111.987 141.105 112.085 140.723 112.085 140.284C112.085 139.873 111.978 139.509 111.763 139.192C111.558 138.865 111.287 138.609 110.951 138.422C110.624 138.235 110.279 138.142 109.915 138.142C109.551 138.142 109.201 138.235 108.865 138.422C108.538 138.609 108.268 138.865 108.053 139.192C107.848 139.509 107.745 139.873 107.745 140.284Z" fill="#D9D9D9"/>
<path d="M144.308 143.067L148.886 138.237C149.101 137.994 149.292 137.756 149.46 137.523C149.637 137.29 149.773 137.042 149.866 136.781C149.969 136.51 150.02 136.221 150.02 135.913C150.02 135.67 149.978 135.428 149.894 135.185C149.81 134.942 149.679 134.723 149.502 134.527C149.325 134.322 149.101 134.158 148.83 134.037C148.569 133.906 148.256 133.841 147.892 133.841C147.416 133.841 147.005 133.958 146.66 134.191C146.315 134.415 146.049 134.737 145.862 135.157C145.675 135.577 145.582 136.067 145.582 136.627H144.812C144.812 135.927 144.933 135.316 145.176 134.793C145.428 134.261 145.783 133.85 146.24 133.561C146.707 133.262 147.257 133.113 147.892 133.113C148.405 133.113 148.844 133.202 149.208 133.379C149.581 133.556 149.885 133.785 150.118 134.065C150.361 134.336 150.538 134.634 150.65 134.961C150.762 135.278 150.818 135.586 150.818 135.885C150.818 136.417 150.687 136.916 150.426 137.383C150.174 137.85 149.861 138.274 149.488 138.657L145.918 142.339H151V143.067H144.308ZM157.354 136.431C157.354 135.927 157.247 135.479 157.032 135.087C156.827 134.695 156.538 134.387 156.164 134.163C155.791 133.939 155.362 133.827 154.876 133.827C154.391 133.827 153.962 133.939 153.588 134.163C153.215 134.387 152.921 134.695 152.706 135.087C152.501 135.479 152.398 135.927 152.398 136.431C152.398 136.916 152.506 137.35 152.72 137.733C152.935 138.116 153.224 138.419 153.588 138.643C153.962 138.867 154.372 138.979 154.82 138.979C155.334 138.979 155.777 138.862 156.15 138.629C156.533 138.396 156.827 138.088 157.032 137.705C157.247 137.322 157.354 136.898 157.354 136.431ZM154.176 143.067H153.21L156.402 138.713L156.458 138.755C156.225 139.035 155.95 139.24 155.632 139.371C155.315 139.492 154.956 139.553 154.554 139.553C154.153 139.553 153.775 139.474 153.42 139.315C153.075 139.156 152.767 138.937 152.496 138.657C152.235 138.368 152.03 138.036 151.88 137.663C151.731 137.28 151.656 136.87 151.656 136.431C151.656 135.778 151.792 135.204 152.062 134.709C152.342 134.214 152.725 133.827 153.21 133.547C153.696 133.267 154.251 133.127 154.876 133.127C155.511 133.127 156.066 133.267 156.542 133.547C157.028 133.827 157.406 134.214 157.676 134.709C157.956 135.204 158.096 135.778 158.096 136.431C158.096 136.832 158.026 137.22 157.886 137.593C157.756 137.966 157.597 138.284 157.41 138.545L154.176 143.067Z" fill="#D9D9D9"/>
<path d="M191.514 138.139V137.635C191.831 137.635 192.13 137.588 192.41 137.495C192.69 137.402 192.937 137.271 193.152 137.103C193.376 136.935 193.549 136.734 193.67 136.501C193.801 136.258 193.866 135.992 193.866 135.703C193.866 135.367 193.791 135.059 193.642 134.779C193.502 134.49 193.292 134.261 193.012 134.093C192.741 133.916 192.405 133.827 192.004 133.827C191.416 133.827 190.94 134.004 190.576 134.359C190.212 134.714 190.03 135.162 190.03 135.703H189.288C189.288 135.19 189.4 134.742 189.624 134.359C189.857 133.976 190.175 133.678 190.576 133.463C190.987 133.239 191.458 133.127 191.99 133.127C192.55 133.127 193.026 133.248 193.418 133.491C193.819 133.734 194.123 134.046 194.328 134.429C194.543 134.812 194.65 135.227 194.65 135.675C194.65 136.151 194.505 136.576 194.216 136.949C193.936 137.322 193.558 137.616 193.082 137.831C192.615 138.036 192.093 138.139 191.514 138.139ZM191.934 143.207C191.458 143.207 191.029 143.137 190.646 142.997C190.273 142.857 189.951 142.666 189.68 142.423C189.419 142.171 189.218 141.882 189.078 141.555C188.938 141.219 188.868 140.86 188.868 140.477H189.652C189.652 140.86 189.741 141.205 189.918 141.513C190.105 141.812 190.371 142.05 190.716 142.227C191.061 142.395 191.467 142.479 191.934 142.479C192.382 142.479 192.769 142.395 193.096 142.227C193.432 142.05 193.689 141.812 193.866 141.513C194.053 141.205 194.146 140.85 194.146 140.449C194.146 140.094 194.067 139.786 193.908 139.525C193.759 139.254 193.553 139.03 193.292 138.853C193.04 138.676 192.76 138.545 192.452 138.461C192.144 138.368 191.831 138.321 191.514 138.321V137.817C191.943 137.817 192.359 137.873 192.76 137.985C193.171 138.088 193.539 138.251 193.866 138.475C194.193 138.69 194.449 138.97 194.636 139.315C194.832 139.66 194.93 140.066 194.93 140.533C194.93 141.065 194.799 141.532 194.538 141.933C194.286 142.334 193.936 142.647 193.488 142.871C193.04 143.095 192.522 143.207 191.934 143.207ZM196.384 138.167C196.384 138.774 196.445 139.338 196.566 139.861C196.687 140.384 196.86 140.841 197.084 141.233C197.317 141.625 197.597 141.933 197.924 142.157C198.251 142.372 198.619 142.479 199.03 142.479C199.45 142.479 199.819 142.372 200.136 142.157C200.463 141.933 200.738 141.625 200.962 141.233C201.195 140.841 201.373 140.384 201.494 139.861C201.615 139.338 201.676 138.774 201.676 138.167C201.676 137.56 201.615 136.996 201.494 136.473C201.373 135.95 201.195 135.493 200.962 135.101C200.738 134.709 200.463 134.406 200.136 134.191C199.819 133.967 199.45 133.855 199.03 133.855C198.619 133.855 198.251 133.967 197.924 134.191C197.597 134.406 197.317 134.709 197.084 135.101C196.86 135.493 196.687 135.95 196.566 136.473C196.445 136.996 196.384 137.56 196.384 138.167ZM195.614 138.167C195.614 137.206 195.754 136.347 196.034 135.591C196.314 134.835 196.711 134.238 197.224 133.799C197.737 133.351 198.339 133.127 199.03 133.127C199.721 133.127 200.323 133.351 200.836 133.799C201.349 134.238 201.746 134.835 202.026 135.591C202.306 136.347 202.446 137.206 202.446 138.167C202.446 139.128 202.306 139.987 202.026 140.743C201.746 141.499 201.349 142.101 200.836 142.549C200.323 142.988 199.721 143.207 199.03 143.207C198.339 143.207 197.737 142.988 197.224 142.549C196.711 142.101 196.314 141.499 196.034 140.743C195.754 139.987 195.614 139.128 195.614 138.167Z" fill="#D9D9D9"/>
<path d="M240.204 134.681V133.883L243.228 133.155V143.067H242.458V134.093L240.204 134.681Z" fill="#222A41"/>
<defs>
<filter id="filter0_di_156_9" x="0" y="0" width="400" height="341" filterUnits="userSpaceOnUse" color-interpolation-filters="sRGB">
<feFlood flood-opacity="0" result="BackgroundImageFix"/>
<feColorMatrix in="SourceAlpha" type="matrix" values="0 0 0 0 0 0 0 0 0 0 0 0 0 0 0 0 0 0 127 0" result="hardAlpha"/>
<feOffset dx="2" dy="2"/>
<feGaussianBlur stdDeviation="3.5"/>
<feComposite in2="hardAlpha" operator="out"/>
<feColorMatrix type="matrix" values="0 0 0 0 0 0 0 0 0 0 0 0 0 0 0 0 0 0 0.25 0"/>
<feBlend mode="normal" in2="BackgroundImageFix" result="effect1_dropShadow_156_9"/>
<feBlend mode="normal" in="SourceGraphic" in2="effect1_dropShadow_156_9" result="shape"/>
<feColorMatrix in="SourceAlpha" type="matrix" values="0 0 0 0 0 0 0 0 0 0 0 0 0 0 0 0 0 0 127 0" result="hardAlpha"/>
<feMorphology radius="3" operator="erode" in="SourceAlpha" result="effect2_innerShadow_156_9"/>
<feOffset dx="4" dy="4"/>
<feGaussianBlur stdDeviation="3.5"/>
<feComposite in2="hardAlpha" operator="arithmetic" k2="-1" k3="1"/>
<feColorMatrix type="matrix" values="0 0 0 0 1 0 0 0 0 1 0 0 0 0 1 0 0 0 0.25 0"/>
<feBlend mode="normal" in2="shape" result="effect2_innerShadow_156_9"/>
</filter>
</defs>
</svg>
