<svg width="185" height="185" viewBox="0 0 185 185" fill="none" xmlns="http://www.w3.org/2000/svg">
<path d="M108.013 123.755C103.957 123.755 100.191 123.031 96.7147 121.582C93.3831 119.989 90.3412 118.468 87.589 117.019C84.8368 115.426 82.2295 114.629 79.767 114.629C77.0148 114.629 74.9145 115.353 73.466 116.802C72.0175 118.106 71.2932 119.771 71.2932 121.799C71.2932 122.379 71.0035 122.668 70.4241 122.668H50.8691C50.2897 122.668 50 122.379 50 121.799C50 118.033 51.0864 114.195 53.2592 110.284C55.5768 106.228 58.7635 102.824 62.8194 100.072C67.0201 97.3194 72.0175 95.9433 77.8115 95.9433C82.0122 95.9433 85.7059 96.6676 88.8927 98.1161C92.0794 99.5646 94.904 101.013 97.3665 102.462C99.9738 103.765 102.219 104.417 104.102 104.417C106.13 104.417 107.868 103.765 109.317 102.462C110.91 101.158 111.707 99.1301 111.707 96.3779C111.707 95.7985 111.997 95.5088 112.576 95.5088H132.131C132.71 95.5088 133 95.7985 133 96.3779C133 102.317 131.769 107.314 129.306 111.37C126.989 115.426 123.874 118.54 119.963 120.713C116.197 122.741 112.214 123.755 108.013 123.755Z" fill="#222A41"/>
<path d="M108.013 89.2461C103.957 89.2461 100.191 88.5218 96.7147 87.0733C93.3831 85.4799 90.3412 83.959 87.589 82.5105C84.8368 80.9171 82.2295 80.1204 79.767 80.1204C77.0148 80.1204 74.9145 80.8447 73.466 82.2932C72.0175 83.5969 71.2932 85.2627 71.2932 87.2906C71.2932 87.87 71.0035 88.1597 70.4241 88.1597H50.8691C50.2897 88.1597 50 87.87 50 87.2906C50 83.5244 51.0864 79.6859 53.2592 75.7749C55.5768 71.719 58.7635 68.315 62.8194 65.5628C67.0201 62.8106 72.0175 61.4346 77.8115 61.4346C82.0122 61.4346 85.7059 62.1588 88.8927 63.6073C92.0794 65.0558 94.904 66.5044 97.3665 67.9529C99.9738 69.2565 102.219 69.9084 104.102 69.9084C106.13 69.9084 107.868 69.2565 109.317 67.9529C110.91 66.6492 111.707 64.6213 111.707 61.8691C111.707 61.2897 111.997 61 112.576 61H132.131C132.71 61 133 61.2897 133 61.8691C133 67.808 131.769 72.8054 129.306 76.8613C126.989 80.9171 123.874 84.0314 119.963 86.2042C116.197 88.2321 112.214 89.2461 108.013 89.2461Z" fill="#222A41"/>
<circle cx="92" cy="92" r="65.5" stroke="#222A41"/>
<circle cx="92.5" cy="92.5" r="92" stroke="#222A41"/>
</svg>
