<svg width="52" height="40" viewBox="0 0 52 40" fill="none" xmlns="http://www.w3.org/2000/svg">
<path d="M36.3455 39.3162C33.8045 39.3162 31.445 38.8625 29.267 37.955C27.1798 36.9567 25.274 36.0038 23.5497 35.0963C21.8255 34.0981 20.192 33.5989 18.6492 33.5989C16.925 33.5989 15.6091 34.0527 14.7016 34.9602C13.7941 35.7769 13.3403 36.8206 13.3403 38.0911C13.3403 38.4541 13.1588 38.6356 12.7958 38.6356H0.544503C0.181501 38.6356 0 38.4541 0 38.0911C0 35.7316 0.680628 33.3267 2.04188 30.8764C3.49389 28.3354 5.4904 26.2028 8.03141 24.4785C10.6632 22.7543 13.7941 21.8921 17.4241 21.8921C20.0558 21.8921 22.37 22.3459 24.3665 23.2534C26.363 24.1609 28.1326 25.0684 29.6754 25.9759C31.3089 26.7926 32.7155 27.201 33.8953 27.201C35.1658 27.201 36.2548 26.7926 37.1623 25.9759C38.1606 25.1591 38.6597 23.8886 38.6597 22.1644C38.6597 21.8014 38.8412 21.6199 39.2042 21.6199H51.4555C51.8185 21.6199 52 21.8014 52 22.1644C52 25.8851 51.2286 29.016 49.6859 31.557C48.2339 34.0981 46.2827 36.0492 43.8325 37.4105C41.4729 38.681 38.9773 39.3162 36.3455 39.3162Z" fill="#222A41"/>
<path d="M36.3455 17.6963C33.8045 17.6963 31.445 17.2426 29.267 16.3351C27.1798 15.3368 25.274 14.3839 23.5497 13.4764C21.8255 12.4782 20.192 11.9791 18.6492 11.9791C16.925 11.9791 15.6091 12.4328 14.7016 13.3403C13.7941 14.1571 13.3403 15.2007 13.3403 16.4712C13.3403 16.8342 13.1588 17.0157 12.7958 17.0157H0.544503C0.181501 17.0157 0 16.8342 0 16.4712C0 14.1117 0.680628 11.7068 2.04188 9.25655C3.49389 6.71553 5.4904 4.5829 8.03141 2.85864C10.6632 1.13438 13.7941 0.272252 17.4241 0.272252C20.0558 0.272252 22.37 0.726005 24.3665 1.63351C26.363 2.54101 28.1326 3.44852 29.6754 4.35602C31.3089 5.17278 32.7155 5.58115 33.8953 5.58115C35.1658 5.58115 36.2548 5.17278 37.1623 4.35602C38.1606 3.53927 38.6597 2.26876 38.6597 0.544504C38.6597 0.181501 38.8412 0 39.2042 0H51.4555C51.8185 0 52 0.181501 52 0.544504C52 4.26527 51.2286 7.39616 49.6859 9.93717C48.2339 12.4782 46.2827 14.4293 43.8325 15.7906C41.4729 17.0611 38.9773 17.6963 36.3455 17.6963Z" fill="#222A41"/>
</svg>
