<svg width="104" height="39" viewBox="0 0 104 39" fill="none" xmlns="http://www.w3.org/2000/svg">
<mask id="path-1-outside-1_157_10" maskUnits="userSpaceOnUse" x="0" y="8" width="30" height="26" fill="black">
<rect fill="white" y="8" width="30" height="26"/>
<path d="M1.536 9.192H27.872V15.016H10.496V17.992H27.52V23.784H10.496V27.048H28.128V33H1.536V9.192Z"/>
</mask>
<path d="M1.536 9.192V8.192H0.536V9.192H1.536ZM27.872 9.192H28.872V8.192H27.872V9.192ZM27.872 15.016V16.016H28.872V15.016H27.872ZM10.496 15.016V14.016H9.496V15.016H10.496ZM10.496 17.992H9.496V18.992H10.496V17.992ZM27.52 17.992H28.52V16.992H27.52V17.992ZM27.52 23.784V24.784H28.52V23.784H27.52ZM10.496 23.784V22.784H9.496V23.784H10.496ZM10.496 27.048H9.496V28.048H10.496V27.048ZM28.128 27.048H29.128V26.048H28.128V27.048ZM28.128 33V34H29.128V33H28.128ZM1.536 33H0.536V34H1.536V33ZM1.536 9.192V10.192H27.872V9.192V8.192H1.536V9.192ZM27.872 9.192H26.872V15.016H27.872H28.872V9.192H27.872ZM27.872 15.016V14.016H10.496V15.016V16.016H27.872V15.016ZM10.496 15.016H9.496V17.992H10.496H11.496V15.016H10.496ZM10.496 17.992V18.992H27.52V17.992V16.992H10.496V17.992ZM27.52 17.992H26.52V23.784H27.52H28.52V17.992H27.52ZM27.52 23.784V22.784H10.496V23.784V24.784H27.52V23.784ZM10.496 23.784H9.496V27.048H10.496H11.496V23.784H10.496ZM10.496 27.048V28.048H28.128V27.048V26.048H10.496V27.048ZM28.128 27.048H27.128V33H28.128H29.128V27.048H28.128ZM28.128 33V32H1.536V33V34H28.128V33ZM1.536 33H2.536V9.192H1.536H0.536V33H1.536Z" fill="#222A41" mask="url(#path-1-outside-1_157_10)"/>
<path d="M52.7892 32.8179L103.156 21.1949C103.362 21.1472 103.362 20.8528 103.156 20.8051L52.7892 9.18212C52.5857 9.13516 52.4555 9.39227 52.6137 9.52854L65.7574 20.8485C65.85 20.9283 65.85 21.0718 65.7574 21.1516L52.6137 32.4715C52.4555 32.6077 52.5857 32.8648 52.7892 32.8179Z" stroke="#222A41"/>
</svg>
