<svg width="36" height="27" viewBox="0 0 36 27" fill="none" xmlns="http://www.w3.org/2000/svg">
<g transform="translate(7.875 5.90625) scale(0.5625)">
<path d="M24.9599 27C23.2149 27 21.5945 26.6884 20.0988 26.0652C18.6654 25.3796 17.3566 24.7253 16.1725 24.102C14.9884 23.4165 13.8666 23.0737 12.8071 23.0737C11.623 23.0737 10.7193 23.3853 10.0961 24.0086C9.47291 24.5695 9.1613 25.2862 9.1613 26.1587C9.1613 26.408 9.03666 26.5326 8.78737 26.5326H0.373931C0.124644 26.5326 0 26.408 0 26.1587C0 24.5383 0.467414 22.8868 1.40224 21.2041C2.39939 19.4591 3.77047 17.9945 5.51548 16.8104C7.32281 15.6263 9.47291 15.0342 11.9658 15.0342C13.7731 15.0342 15.3623 15.3458 16.7334 15.9691C18.1045 16.5923 19.3198 17.2155 20.3792 17.8387C21.501 18.3996 22.467 18.6801 23.2772 18.6801C24.1497 18.6801 24.8976 18.3996 25.5208 17.8387C26.2063 17.2778 26.5491 16.4053 26.5491 15.2212C26.5491 14.9719 26.6737 14.8473 26.923 14.8473H35.3365C35.5857 14.8473 35.7104 14.9719 35.7104 15.2212C35.7104 17.7764 35.1807 19.9265 34.1212 21.6715C33.124 23.4165 31.7841 24.7564 30.1014 25.6913C28.4811 26.5638 26.7672 27 24.9599 27Z" fill="#222A41"/>
<path d="M24.9599 12.1528C23.2149 12.1528 21.5945 11.8411 20.0988 11.2179C18.6654 10.5324 17.3566 9.87801 16.1725 9.25479C14.9884 8.56925 13.8666 8.22648 12.8071 8.22648C11.623 8.22648 10.7193 8.53809 10.0961 9.16131C9.47291 9.7222 9.1613 10.4389 9.1613 11.3114C9.1613 11.5607 9.03666 11.6853 8.78737 11.6853H0.373931C0.124644 11.6853 0 11.5607 0 11.3114C0 9.69104 0.467414 8.03951 1.40224 6.35682C2.39939 4.61181 3.77047 3.14725 5.51548 1.96314C7.32281 0.779023 9.47291 0.186966 11.9658 0.186966C13.7731 0.186966 15.3623 0.498575 16.7334 1.12179C18.1045 1.74501 19.3198 2.36823 20.3792 2.99145C21.501 3.55234 22.467 3.83279 23.2772 3.83279C24.1497 3.83279 24.8976 3.55234 25.5208 2.99145C26.2063 2.43055 26.5491 1.55805 26.5491 0.373931C26.5491 0.124644 26.6737 0 26.923 0H35.3365C35.5857 0 35.7104 0.124644 35.7104 0.373931C35.7104 2.92913 35.1807 5.07923 34.1212 6.82424C33.124 8.56925 31.7841 9.90917 30.1014 10.844C28.4811 11.7165 26.7672 12.1528 24.9599 12.1528Z" fill="#222A41"/>
</g>
</svg>
