<svg width="30" height="30" viewBox="0 0 30 30" fill="none" xmlns="http://www.w3.org/2000/svg">
<path d="M14.9576 12.1316L7.99474 9.99443C7.88927 9.96205 7.76768 9.98371 7.67735 10.0516L6.2373 11.1352C6.0618 11.2674 6.07724 11.5058 6.26731 11.5959L13.2054 14.8862C13.3552 14.9571 13.5503 14.9017 13.6412 14.7631L15.1063 12.5276C15.2066 12.3741 15.1364 12.1865 14.9576 12.1316Z" fill="#222A41" stroke="#222A41" stroke-width="0.333515"/>
<path d="M16.9152 14.0676L19.0524 21.0305C19.0848 21.1359 19.0631 21.2575 18.9952 21.3479L17.9116 22.7879C17.7794 22.9634 17.541 22.948 17.4509 22.7579L14.1606 15.8198C14.0897 15.6701 14.1451 15.4749 14.2837 15.3841L16.5192 13.9189C16.6727 13.8186 16.8603 13.8888 16.9152 14.0676Z" fill="#222A41" stroke="#222A41" stroke-width="0.333515"/>
<path d="M9.89567 19.3314L6.36566 17.5774C6.31381 17.5518 6.25243 17.5543 6.20339 17.585L3.83555 19.0745C3.72964 19.1411 3.73182 19.2957 3.83969 19.359L7.57617 21.5473C7.6507 21.591 7.71241 21.6534 7.75571 21.7282L9.87841 25.3977C9.94067 25.5053 10.095 25.5088 10.1629 25.4046L11.6855 23.0685C11.7175 23.0193 11.7212 22.9569 11.6952 22.9042L9.97094 19.4066C9.95477 19.374 9.92832 19.3476 9.89567 19.3314Z" fill="#222A41" stroke="#222A41" stroke-width="0.333515"/>
<path d="M22.3952 6.68593C21.86 6.15071 20.9922 6.15021 20.4569 6.68524L7.89125 19.2509L9.82958 21.1892L22.3952 8.62357C22.9302 8.08832 22.9302 7.22117 22.3952 6.68593Z" fill="#222A41" stroke="#222A41" stroke-width="0.333515"/>
</svg>
