<svg width="74" height="64" viewBox="0 0 74 64" fill="none" xmlns="http://www.w3.org/2000/svg">
<mask id="path-1-outside-1_197_5" maskUnits="userSpaceOnUse" x="-0.230469" y="-0.171997" width="75" height="64" fill="black">
<rect fill="white" x="-0.230469" y="-0.171997" width="75" height="64"/>
<path d="M44.2135 42.41H21.9095V36.916C21.9095 31.094 23.3855 27.486 34.7015 24.862L42.8195 22.976C48.8875 21.664 50.0355 20.188 50.0355 18.548C50.0355 16.58 49.2975 14.858 37.7355 14.858C23.9595 14.858 23.7955 19.368 23.5495 21.91H0.999531V20.926C0.999531 13.382 1.81953 1 35.2755 1H39.6215C68.3215 1 72.9135 10.184 72.9135 18.384V18.958C72.9135 26.338 69.0595 32.242 57.4155 35.112L49.1335 37.08C44.7875 38.146 44.2135 39.376 44.2135 42V42.41ZM44.7875 46.838V62.828H21.7455V46.838H44.7875Z"/>
</mask>
<path d="M44.2135 42.41V43.41H45.2135V42.41H44.2135ZM21.9095 42.41H20.9095V43.41H21.9095V42.41ZM34.7015 24.862L34.9274 25.8362L34.9278 25.8361L34.7015 24.862ZM42.8195 22.976L42.6082 21.9986L42.6007 22.0002L42.5932 22.0019L42.8195 22.976ZM23.5495 21.91V22.91H24.4574L24.5449 22.0063L23.5495 21.91ZM0.999531 21.91H-0.000468701V22.91H0.999531V21.91ZM57.4155 35.112L57.6467 36.0849L57.6549 36.0829L57.4155 35.112ZM49.1335 37.08L48.9023 36.1071L48.8953 36.1088L49.1335 37.08ZM44.7875 46.838H45.7875V45.838H44.7875V46.838ZM44.7875 62.828V63.828H45.7875V62.828H44.7875ZM21.7455 62.828H20.7455V63.828H21.7455V62.828ZM21.7455 46.838V45.838H20.7455V46.838H21.7455ZM44.2135 42.41V41.41H21.9095V42.41V43.41H44.2135V42.41ZM21.9095 42.41H22.9095V36.916H21.9095H20.9095V42.41H21.9095ZM21.9095 36.916H22.9095C22.9095 34.0709 23.2777 32.0356 24.8013 30.3632C26.3709 28.6402 29.3138 27.1379 34.9274 25.8362L34.7015 24.862L34.4756 23.8878C28.7732 25.2101 25.3202 26.8238 23.3228 29.0163C21.2794 31.2594 20.9095 33.9391 20.9095 36.916H21.9095ZM34.7015 24.862L34.9278 25.8361L43.0458 23.9501L42.8195 22.976L42.5932 22.0019L34.4752 23.8879L34.7015 24.862ZM42.8195 22.976L43.0309 23.9534C46.0945 23.291 48.0631 22.5608 49.2797 21.702C49.9041 21.2613 50.3578 20.768 50.6487 20.2084C50.941 19.6458 51.0355 19.0801 51.0355 18.548H50.0355H49.0355C49.0355 18.8359 48.9865 19.0697 48.874 19.2861C48.76 19.5055 48.5475 19.7707 48.1264 20.068C47.252 20.6852 45.6126 21.349 42.6082 21.9986L42.8195 22.976ZM50.0355 18.548H51.0355C51.0355 18.0081 50.9902 17.3158 50.6083 16.6459C50.217 15.9597 49.5564 15.4365 48.6047 15.0414C46.7704 14.28 43.5103 13.858 37.7355 13.858V14.858V15.858C43.5228 15.858 46.4127 16.297 47.8379 16.8886C48.516 17.17 48.7624 17.4463 48.8709 17.6365C48.9886 17.843 49.0355 18.1039 49.0355 18.548H50.0355ZM37.7355 14.858V13.858C30.7931 13.858 27.0126 14.9833 24.9414 16.6521C22.7883 18.3868 22.6753 20.5617 22.5542 21.8137L23.5495 21.91L24.5449 22.0063C24.6697 20.7163 24.7617 19.3652 26.1962 18.2094C27.7125 16.9877 30.902 15.858 37.7355 15.858V14.858ZM23.5495 21.91V20.91H0.999531V21.91V22.91H23.5495V21.91ZM0.999531 21.91H1.99953V20.926H0.999531H-0.000468701V21.91H0.999531ZM0.999531 20.926H1.99953C1.99953 17.1792 2.21998 12.5969 6.26881 8.86973C10.3714 5.09307 18.6178 2 35.2755 2V1V1.90735e-06C18.4772 1.90735e-06 9.58569 3.09793 4.91425 7.39828C0.18908 11.7481 -0.000468701 17.1288 -0.000468701 20.926H0.999531ZM35.2755 1V2H39.6215V1V1.90735e-06H35.2755V1ZM39.6215 1V2C53.9058 2 61.975 4.29334 66.4559 7.43573C70.8462 10.5147 71.9135 14.501 71.9135 18.384H72.9135H73.9135C73.9135 14.067 72.6849 9.36135 67.6042 5.79827C62.614 2.29866 54.0372 1.90735e-06 39.6215 1.90735e-06V1ZM72.9135 18.384H71.9135V18.958H72.9135H73.9135V18.384H72.9135ZM72.9135 18.958H71.9135C71.9135 22.4645 71.0031 25.532 68.7793 28.0668C66.5405 30.6186 62.8787 32.7355 57.1762 34.1411L57.4155 35.112L57.6549 36.0829C63.5964 34.6185 67.6836 32.3484 70.2827 29.3857C72.8969 26.406 73.9135 22.8315 73.9135 18.958H72.9135ZM57.4155 35.112L57.1843 34.1391L48.9023 36.1071L49.1335 37.08L49.3647 38.0529L57.6467 36.0849L57.4155 35.112ZM49.1335 37.08L48.8953 36.1088C46.7007 36.6471 45.203 37.2765 44.298 38.2895C43.3477 39.3534 43.2135 40.6516 43.2135 42H44.2135H45.2135C45.2135 40.7244 45.3664 40.0956 45.7895 39.622C46.2581 39.0975 47.2204 38.5789 49.3718 38.0512L49.1335 37.08ZM44.2135 42H43.2135V42.41H44.2135H45.2135V42H44.2135ZM44.7875 46.838H43.7875V62.828H44.7875H45.7875V46.838H44.7875ZM44.7875 62.828V61.828H21.7455V62.828V63.828H44.7875V62.828ZM21.7455 62.828H22.7455V46.838H21.7455H20.7455V62.828H21.7455ZM21.7455 46.838V47.838H44.7875V46.838V45.838H21.7455V46.838Z" fill="white" mask="url(#path-1-outside-1_197_5)"/>
</svg>
