<svg width="175" height="175" viewBox="0 0 175 175" fill="none" xmlns="http://www.w3.org/2000/svg">
<path d="M89.9952 9.48516L90.3131 7.07402L98.7204 8.1824L98.4025 10.5935L89.9952 9.48516ZM97.5563 3.91363L100.237 4.26706L98.7732 15.371L96.0924 15.0176L97.5563 3.91363ZM90.1008 2.93073L92.7816 3.28416L91.3178 14.3881L88.6369 14.0347L90.1008 2.93073Z" fill="#222A41"/>
<path d="M110.042 15.637L111.002 13.7997L116.14 15.9036L115.521 17.8803L110.042 15.637ZM114.619 12.186L111.798 14.9382L111.692 15.5345L109.313 17.6723L106.485 16.5142L116.444 7.72923L117.397 20.9827L114.554 19.8186L114.359 16.7477L114.709 16.1474L114.619 12.186Z" fill="#222A41"/>
<path d="M130.803 15.2322L133.005 16.8017L127.851 24.0327L131.512 26.6424L130.165 28.5315L124.302 24.3524L130.803 15.2322Z" fill="#222A41"/>
<path d="M139.539 33.3269L141.214 32.1058L144.886 36.2702L143.454 37.7672L139.539 33.3269ZM145.171 32.2638L141.422 33.4793L141.063 33.9668L137.982 34.8275L135.961 32.5353L148.784 29.0787L143.76 41.38L141.728 39.0758L142.915 36.237L143.495 35.854L145.171 32.2638Z" fill="#222A41"/>
<path d="M158.279 42.1148L159.567 44.4922L151.759 48.7225L153.901 52.6756L151.861 53.7808L148.431 47.4503L158.279 42.1148Z" fill="#222A41"/>
<path d="M164.74 82.6466L171.247 84.4231L171.446 87.633L159.312 83.5283L165.828 79.5012L158.866 76.3262L170.399 70.7534L170.597 73.9473L164.362 76.5463L171.481 79.1505L164.74 82.6466Z" fill="#222A41"/>
<path d="M170.712 98.1627L170.224 100.871L159.202 98.8867L159.689 96.1782L170.712 98.1627Z" fill="#222A41"/>
<path d="M165.126 119.108L164.12 121.514L153.27 116.978L162.59 112.481L156.774 110.049L157.774 107.658L168.624 112.194L159.31 116.676L165.126 119.108Z" fill="#222A41"/>
<path d="M158.345 132.996L156.633 135.192L147.8 128.306L149.511 126.111L158.345 132.996ZM147.052 129.266L148.409 127.524L150.302 128.999L149.004 130.665C148.742 131.002 148.531 131.358 148.373 131.735C148.208 132.121 148.13 132.506 148.14 132.893C148.143 133.288 148.249 133.681 148.457 134.073C148.674 134.472 149.022 134.858 149.502 135.232C149.981 135.606 150.437 135.846 150.868 135.952C151.307 136.065 151.719 136.074 152.103 135.981C152.48 135.897 152.835 135.727 153.168 135.473C153.495 135.227 153.79 134.936 154.052 134.6L155.35 132.934L157.243 134.409L155.886 136.151C155.132 137.118 154.298 137.814 153.386 138.239C152.473 138.664 151.538 138.814 150.58 138.689C149.622 138.565 148.689 138.149 147.78 137.44C146.88 136.739 146.249 135.936 145.886 135.03C145.531 134.132 145.448 133.188 145.637 132.2C145.826 131.211 146.298 130.233 147.052 129.266Z" fill="#222A41"/>
<path d="M128.171 151.215L129.881 150.376C129.966 150.463 130.041 150.568 130.107 150.69C130.235 150.924 130.329 151.164 130.39 151.411C130.446 151.671 130.447 151.95 130.39 152.248C130.326 152.599 130.199 152.923 130.008 153.221C129.823 153.528 129.497 153.809 129.028 154.064C128.813 154.181 128.6 154.26 128.392 154.301C128.188 154.351 127.965 154.375 127.721 154.374C127.478 154.373 127.203 154.358 126.897 154.331C126.599 154.298 126.348 154.283 126.143 154.285C125.929 154.293 125.761 154.33 125.639 154.396C125.479 154.482 125.39 154.598 125.371 154.742C125.358 154.895 125.392 155.046 125.473 155.196C125.519 155.281 125.572 155.355 125.631 155.42C125.696 155.494 125.76 155.556 125.824 155.607L124.085 156.461C124.036 156.415 123.988 156.362 123.943 156.302C123.898 156.241 123.855 156.173 123.815 156.098C123.692 155.874 123.595 155.629 123.524 155.364C123.444 155.104 123.432 154.825 123.488 154.527C123.539 154.196 123.65 153.899 123.822 153.635C123.985 153.377 124.264 153.14 124.657 152.926C124.938 152.773 125.248 152.684 125.586 152.658C125.914 152.637 126.313 152.645 126.782 152.681C126.988 152.702 127.175 152.71 127.341 152.704C127.513 152.708 127.671 152.696 127.813 152.667C127.955 152.638 128.087 152.59 128.209 152.524C128.434 152.402 128.555 152.245 128.572 152.053C128.585 151.876 128.551 151.713 128.469 151.563C128.418 151.469 128.368 151.399 128.319 151.353C128.269 151.307 128.22 151.261 128.171 151.215Z" fill="#222A41"/>
<path d="M99.697 165.178L99.813 166.356L98.0137 166.534C97.7058 166.564 97.4505 166.637 97.2476 166.754C97.034 166.871 96.8773 167.021 96.7772 167.202C96.6782 167.394 96.6412 167.617 96.6663 167.872C96.704 168.254 96.8596 168.528 97.1331 168.694C97.4067 168.86 97.7771 168.92 98.2441 168.874L99.3587 168.765L98.6721 161.79L97.3027 161.925C96.9524 161.96 96.6434 162.033 96.3758 162.145C96.1092 162.268 95.9062 162.438 95.7668 162.655C95.6179 162.884 95.5612 163.179 95.5967 163.54C95.6197 163.774 95.6873 163.971 95.7996 164.131C95.9119 164.291 96.0581 164.416 96.2384 164.506C96.4187 164.595 96.6224 164.65 96.8495 164.671C97.0671 164.703 97.3085 164.706 97.5739 164.68L99.628 164.477L99.7722 165.942L97.4156 166.174C96.8742 166.228 96.343 166.221 95.822 166.154C95.3009 166.088 94.8204 165.942 94.3802 165.718C93.9412 165.504 93.5797 165.207 93.2958 164.828C93.0024 164.46 92.828 163.995 92.7726 163.432C92.6994 162.689 92.8208 162.072 93.1368 161.58C93.4421 161.089 93.9076 160.7 94.5332 160.413C95.1598 160.137 95.9137 159.956 96.7948 159.869L101.158 159.439L102.255 170.585L98.1629 170.988C97.388 171.065 96.6981 171.025 96.0934 170.871C95.4791 170.727 94.9812 170.46 94.5997 170.069C94.2086 169.69 93.9817 169.181 93.919 168.544C93.8615 167.961 93.9875 167.444 94.2971 166.996C94.596 166.549 95.0317 166.184 95.6043 165.903C96.1672 165.633 96.8361 165.46 97.611 165.383L99.697 165.178Z" fill="#222A41"/>
<path d="M81.2988 166.129C81.4007 165.475 81.3647 164.876 81.1907 164.331C81.0045 163.794 80.7018 163.347 80.2825 162.991C79.8526 162.632 79.3215 162.403 78.6892 162.305C78.0674 162.208 77.5024 162.265 76.9943 162.477C76.4756 162.688 76.0512 163.021 75.7209 163.477C75.3785 163.942 75.1563 164.501 75.0543 165.154C74.9524 165.808 74.9892 166.402 75.1648 166.937C75.3388 167.482 75.6355 167.933 76.0548 168.29C76.4741 168.647 77.0052 168.876 77.6481 168.976C78.2805 169.075 78.856 169.019 79.3746 168.808C79.8828 168.596 80.308 168.257 80.6505 167.793C80.9807 167.337 81.1968 166.782 81.2988 166.129ZM84.1285 166.57C83.9953 167.424 83.726 168.181 83.3208 168.841C82.9049 169.499 82.388 170.045 81.7699 170.477C81.1518 170.91 80.4578 171.207 79.6878 171.367C78.9162 171.538 78.1089 171.558 77.2657 171.426C76.4121 171.293 75.6491 171.028 74.9769 170.632C74.2924 170.244 73.7217 169.75 73.2648 169.15C72.8079 168.55 72.487 167.874 72.3021 167.121C72.1172 166.369 72.0914 165.566 72.2246 164.713C72.3578 163.859 72.6279 163.097 73.0348 162.426C73.4312 161.754 73.9393 161.196 74.559 160.753C75.1682 160.309 75.8594 159.995 76.6326 159.814C77.4042 159.643 78.2222 159.625 79.0864 159.759C79.9611 159.896 80.7399 160.163 81.4227 160.561C82.1038 160.97 82.672 161.48 83.1273 162.09C83.572 162.7 83.886 163.386 84.0693 164.148C84.242 164.909 84.2617 165.717 84.1285 166.57Z" fill="#222A41"/>
<path d="M59.1481 161.328L62.1809 156.441L64.7597 157.65L58.1314 167.531L56.7138 159.321L49.4824 163.477L52.8365 152.061L55.4153 153.27L53.5995 158.727L58.364 155.801L59.1481 161.328Z" fill="#222A41"/>
<path d="M40.1573 150.871C40.5934 150.374 40.884 149.848 41.0292 149.295C41.1593 148.742 41.1429 148.203 40.9799 147.677C40.809 147.143 40.483 146.666 40.0018 146.244C39.5287 145.829 39.0208 145.575 38.478 145.482C37.9273 145.382 37.3904 145.436 36.8673 145.644C36.3292 145.853 35.8421 146.206 35.406 146.703C34.9699 147.201 34.6828 147.722 34.5447 148.268C34.3995 148.821 34.4084 149.361 34.5713 149.887C34.7342 150.413 35.0603 150.891 35.5494 151.32C36.0306 151.742 36.5465 152.003 37.0973 152.103C37.64 152.196 38.1805 152.138 38.7185 151.929C39.2416 151.721 39.7212 151.368 40.1573 150.871ZM42.3103 152.76C41.7406 153.409 41.1078 153.904 40.412 154.244C39.7082 154.578 38.9795 154.761 38.2259 154.796C37.4723 154.83 36.7274 154.708 35.9912 154.432C35.248 154.163 34.5556 153.747 33.9141 153.184C33.2645 152.615 32.7621 151.982 32.4067 151.287C32.0363 150.594 31.8189 149.871 31.7546 149.119C31.6903 148.368 31.7815 147.625 32.0282 146.89C32.275 146.156 32.6832 145.464 33.253 144.815C33.8227 144.165 34.459 143.666 35.1618 143.318C35.8566 142.963 36.5844 142.764 37.345 142.722C38.0976 142.672 38.8491 142.778 39.5993 143.039C40.3426 143.308 41.043 143.731 41.7005 144.307C42.3661 144.891 42.8806 145.534 43.244 146.236C43.6003 146.946 43.8071 147.68 43.8644 148.44C43.9137 149.193 43.8114 149.94 43.5576 150.682C43.2958 151.418 42.8801 152.11 42.3103 152.76Z" fill="#222A41"/>
<path d="M16.8087 133.888L15.3923 131.699L25.2671 125.312L23.709 135.542L29.0024 132.119L30.41 134.295L20.5353 140.682L22.1021 130.465L16.8087 133.888Z" fill="#222A41"/>
<path d="M12.1024 120.996L9.81837 121.784L6.92918 113.404L9.21324 112.616L10.2198 115.536L18.5241 112.673L19.4054 115.229L11.1011 118.092L12.1024 120.996Z" fill="#222A41"/>
<path d="M4.46374 104.414L4.05424 101.692L15.1296 100.026L15.5391 102.747L4.46374 104.414Z" fill="#222A41"/>
<path d="M5.47814 78.2469L3.11036 77.7667L4.87244 69.0796L7.24022 69.5598L6.62635 72.5862L15.235 74.3324L14.6975 76.9824L6.08882 75.2362L5.47814 78.2469Z" fill="#222A41"/>
<path d="M7.31916 60.0506L8.34842 57.4984L18.7356 61.6872L17.7063 64.2395L7.31916 60.0506Z" fill="#222A41"/>
<path d="M18.8414 47.7411L23.1598 51.5398L21.5414 53.8834L12.8919 45.7132L21.223 45.6719L18.3196 37.8532L29.0239 43.0478L27.4056 45.3914L22.3235 42.6986L24.4223 47.8812L18.8414 47.7411Z" fill="#222A41"/>
<path d="M35.5538 35.5062L34.0994 33.8237L38.3723 30.1301L39.8267 31.8127L35.5538 35.5062ZM29.6839 28.7156L28.2295 27.0331L32.5024 23.3395L33.9568 25.022L29.6839 28.7156ZM32.4148 31.8749L30.9918 30.2287L35.0226 26.7444L36.4456 28.3906L32.4148 31.8749ZM26.8738 28.205L28.8347 26.5099L36.159 34.9831L34.1981 36.6781L26.8738 28.205Z" fill="#222A41"/>
<path d="M58.2079 17.3148L56.3728 17.8284C56.306 17.7268 56.2512 17.61 56.2082 17.4782C56.1256 17.2246 56.0768 16.9713 56.0616 16.7182C56.0534 16.4516 56.1042 16.1771 56.214 15.8945C56.3411 15.5614 56.5253 15.2658 56.7666 15.0078C57.0046 14.7395 57.3771 14.5229 57.8842 14.3577C58.1175 14.2817 58.3404 14.2428 58.5529 14.2408C58.7621 14.2288 58.9863 14.2455 59.2255 14.291C59.4647 14.3365 59.7324 14.4007 60.0287 14.4837C60.3148 14.57 60.5589 14.6307 60.7611 14.6659C60.9734 14.6977 61.1455 14.6921 61.2773 14.6492C61.4497 14.593 61.5583 14.4959 61.6031 14.3579C61.6446 14.2098 61.6389 14.0546 61.5861 13.8923C61.5564 13.8011 61.5181 13.7181 61.4714 13.6436C61.4214 13.5589 61.3696 13.4861 61.3161 13.425L63.1817 12.9015C63.2218 12.9557 63.2585 13.0167 63.2917 13.0844C63.325 13.1521 63.3548 13.2265 63.3813 13.3076C63.4605 13.551 63.5111 13.8094 63.5328 14.0828C63.5647 14.3529 63.5257 14.6292 63.4158 14.9118C63.3057 15.2281 63.1419 15.5002 62.9244 15.7281C62.7171 15.9527 62.4005 16.1343 61.9745 16.2731C61.6702 16.3722 61.3496 16.4037 61.0125 16.3677C60.6856 16.3283 60.2948 16.2481 59.8403 16.1269C59.6417 16.0682 59.4598 16.0264 59.2947 16.0017C59.1263 15.9668 58.9695 15.9505 58.8245 15.9529C58.6794 15.9553 58.541 15.9779 58.4091 16.0209C58.1657 16.1002 58.018 16.2324 57.9662 16.4176C57.9211 16.5893 57.9251 16.7563 57.9779 16.9186C58.0109 17.02 58.0475 17.0978 58.0876 17.1521C58.1277 17.2063 58.1678 17.2606 58.2079 17.3148Z" fill="#222A41"/>
</svg>
