<svg width="114" height="39" viewBox="0 0 114 39" fill="none" xmlns="http://www.w3.org/2000/svg">
<mask id="path-1-outside-1_157_11" maskUnits="userSpaceOnUse" x="-0.15332" y="8" width="53" height="26" fill="black">
<rect fill="white" x="-0.15332" y="8" width="53" height="26"/>
<path d="M21.8147 33H10.7427L1.46268 9.192H11.5747L16.9827 24.904L21.7507 9.192H31.9907L36.8227 24.648L42.0707 9.192H51.3827L42.1027 33H31.5747L26.6147 17.96L21.8147 33Z"/>
</mask>
<path d="M21.8147 33V34H22.5452L22.7673 33.304L21.8147 33ZM10.7427 33L9.81096 33.3632L10.0592 34H10.7427V33ZM1.46268 9.192V8.192H-0.000386357L0.530957 9.55517L1.46268 9.192ZM11.5747 9.192L12.5202 8.86654L12.2881 8.192H11.5747V9.192ZM16.9827 24.904L16.0371 25.2295L17.0425 28.1505L17.9396 25.1944L16.9827 24.904ZM21.7507 9.192V8.192H21.0091L20.7938 8.90161L21.7507 9.192ZM31.9907 9.192L32.9451 8.89361L32.7258 8.192H31.9907V9.192ZM36.8227 24.648L35.8682 24.9464L36.7834 27.8738L37.7696 24.9695L36.8227 24.648ZM42.0707 9.192V8.192H41.3542L41.1238 8.87048L42.0707 9.192ZM51.3827 9.192L52.3144 9.55517L52.8457 8.192H51.3827V9.192ZM42.1027 33V34H42.7862L43.0344 33.3632L42.1027 33ZM31.5747 33L30.625 33.3132L30.8515 34H31.5747V33ZM26.6147 17.96L27.5644 17.6468L26.5991 14.7198L25.662 17.656L26.6147 17.96ZM21.8147 33V32H10.7427V33V34H21.8147V33ZM10.7427 33L11.6744 32.6368L2.3944 8.82883L1.46268 9.192L0.530957 9.55517L9.81096 33.3632L10.7427 33ZM1.46268 9.192V10.192H11.5747V9.192V8.192H1.46268V9.192ZM11.5747 9.192L10.6291 9.51746L16.0371 25.2295L16.9827 24.904L17.9282 24.5785L12.5202 8.86654L11.5747 9.192ZM16.9827 24.904L17.9396 25.1944L22.7076 9.48239L21.7507 9.192L20.7938 8.90161L16.0258 24.6136L16.9827 24.904ZM21.7507 9.192V10.192H31.9907V9.192V8.192H21.7507V9.192ZM31.9907 9.192L31.0362 9.49039L35.8682 24.9464L36.8227 24.648L37.7771 24.3496L32.9451 8.89361L31.9907 9.192ZM36.8227 24.648L37.7696 24.9695L43.0176 9.51352L42.0707 9.192L41.1238 8.87048L35.8758 24.3265L36.8227 24.648ZM42.0707 9.192V10.192H51.3827V9.192V8.192H42.0707V9.192ZM51.3827 9.192L50.451 8.82883L41.171 32.6368L42.1027 33L43.0344 33.3632L52.3144 9.55517L51.3827 9.192ZM42.1027 33V32H31.5747V33V34H42.1027V33ZM31.5747 33L32.5244 32.6868L27.5644 17.6468L26.6147 17.96L25.665 18.2732L30.625 33.3132L31.5747 33ZM26.6147 17.96L25.662 17.656L20.862 32.696L21.8147 33L22.7673 33.304L27.5673 18.264L26.6147 17.96Z" fill="#222A41" mask="url(#path-1-outside-1_157_11)"/>
<path d="M113.057 31.8179L62.6912 20.1949C62.4844 20.1472 62.4844 19.8528 62.6912 19.8051L113.057 8.18212C113.261 8.13516 113.391 8.39227 113.233 8.52854L100.089 19.8485C99.9966 19.9283 99.9966 20.0718 100.089 20.1516L113.233 31.4715C113.391 31.6077 113.261 31.8648 113.057 31.8179Z" stroke="#222A41"/>
</svg>
