<svg width="571" height="295" viewBox="0 0 571 295" fill="none" xmlns="http://www.w3.org/2000/svg">
<circle cx="3.89744" cy="69.1795" r="3.89744" fill="#222A41"/>
<circle cx="567.077" cy="3.89744" r="3.89744" fill="#222A41"/>
<path d="M4.38477 69.179C31.5197 32.2607 97.1015 4.55201 97.4348 92.9882C97.4355 93.1855 97.1603 93.304 97.0224 93.163C91.7727 87.7947 65.2114 90.2737 51.5889 106.167C34.0504 126.628 43.0086 141.981 48.5889 146.167C62.5889 156.667 85.7437 139.333 97.436 126.666C87.6924 139.17 72.391 176.38 83.5889 205.667C90.0889 222.667 117.089 250.667 147.589 261.167C171.986 269.566 209.681 272.634 236.338 249.329C236.48 249.204 236.704 249.328 236.673 249.515C232.668 273.484 237.774 293.553 260.589 293.167C283.533 292.778 298.564 269.768 306.577 248.309C306.608 248.224 306.675 248.17 306.764 248.182C310.984 248.776 338.279 261.25 359.089 258.167C385.397 254.269 402.33 241.274 422.089 248.167C443.589 255.667 462.807 306.885 490.089 277.167C517.371 247.449 531.589 199.167 524.589 132.167C523.234 119.195 506.765 108.937 501.056 106.919C500.861 106.85 500.897 106.545 501.096 106.492C545.215 94.5671 527.607 38.4324 506.906 38.0025C506.781 37.9999 506.687 37.8876 506.709 37.7651C510.669 15.9311 525.329 -4.35341 567.077 4.38459" stroke="#222A41" stroke-width="2" stroke-dasharray="6 2"/>
<circle cx="509.167" cy="40.5008" r="10.77" fill="#222A41" stroke="#222A41"/>
<circle cx="509.168" cy="40.5012" r="4.50889" fill="#F4F3F1" stroke="#222A41"/>
<circle cx="97.8589" cy="93.9368" r="10.77" fill="#222A41" stroke="#222A41"/>
<circle cx="97.8585" cy="93.9371" r="5.00889" fill="#F4F3F1"/>
<circle cx="97.4362" cy="126.667" r="8.26923" fill="#222A41" stroke="#F4F3F1"/>
<circle cx="97.4365" cy="126.667" r="3.89744" fill="#F4F3F1"/>
<circle cx="237.744" cy="247.487" r="8.26923" fill="#222A41" stroke="#F4F3F1"/>
<circle cx="237.744" cy="247.487" r="3.89744" fill="#F4F3F1"/>
<circle cx="307.399" cy="246.436" r="8.26923" fill="#222A41" stroke="#F4F3F1"/>
<circle cx="307.399" cy="246.436" r="3.89744" fill="#F4F3F1"/>
<circle cx="499.846" cy="107.179" r="8.26923" fill="#222A41" stroke="#F4F3F1"/>
<circle cx="499.847" cy="107.179" r="3.89744" fill="#F4F3F1"/>
</svg>
