<svg width="122" height="799" viewBox="0 0 122 799" fill="none" xmlns="http://www.w3.org/2000/svg">
<path d="M121.694 7.30078H90.0137" stroke="#222A41" stroke-width="4"/>
<path d="M121.694 477.232H90.0137" stroke="#222A41" stroke-width="4"/>
<path d="M121.681 787.208H90" stroke="#222A41" stroke-width="4"/>
<path d="M121.694 167.024H90.0137" stroke="#222A41" stroke-width="4"/>
<path d="M48.3766 784.18V784.63C48.3766 786.655 47.4166 790.21 40.5466 790.21H39.8716C32.9866 790.21 32.0266 786.655 32.0266 784.63V784.18C32.0266 782.125 32.9866 778.63 39.8716 778.63H40.5466C47.4166 778.63 48.3766 782.125 48.3766 784.18ZM43.9516 784.465V784.27C43.9516 783.115 43.2016 781.63 40.2016 781.63C37.1266 781.63 36.4366 783.115 36.4366 784.27V784.45C36.4366 785.605 37.1866 787.18 40.2016 787.18C43.2016 787.18 43.9516 785.62 43.9516 784.465Z" fill="#222A41"/>
<path d="M7.89 481.882H7.17C0.945 481.882 0.45 479.317 0.45 478.222V478.117H4.875C4.92 478.282 5.13 479.122 7.515 479.122C9.675 479.122 10.035 478.462 10.035 477.847V477.787C10.035 477.187 9.675 476.527 7.515 476.527C5.16 476.527 4.875 477.292 4.845 477.397H0.66V470.512H13.68V473.227H4.875V475.042C5.115 474.847 6.18 474.052 8.82 474.052H8.955C13.455 474.052 14.46 475.762 14.46 477.757V477.847C14.46 479.692 13.395 481.882 7.89 481.882ZM31.4167 475.852V476.302C31.4167 478.327 30.4567 481.882 23.5867 481.882H22.9117C16.0267 481.882 15.0667 478.327 15.0667 476.302V475.852C15.0667 473.797 16.0267 470.302 22.9117 470.302H23.5867C30.4567 470.302 31.4167 473.797 31.4167 475.852ZM26.9917 476.137V475.942C26.9917 474.787 26.2417 473.302 23.2417 473.302C20.1667 473.302 19.4767 474.787 19.4767 475.942V476.122C19.4767 477.277 20.2267 478.852 23.2417 478.852C26.2417 478.852 26.9917 477.292 26.9917 476.137Z" fill="#222A41"/>
<path d="M2.97 166.467H0.27V164.142C2.265 164.022 3.285 163.197 3.81 161.907H7.2V173.067H2.97V166.467ZM15.8588 173.277H15.1388C8.91375 173.277 8.41875 170.712 8.41875 169.617V169.512H12.8438C12.8888 169.677 13.0988 170.517 15.4838 170.517C17.6438 170.517 18.0038 169.857 18.0038 169.242V169.182C18.0038 168.582 17.6438 167.922 15.4838 167.922C13.1288 167.922 12.8438 168.687 12.8138 168.792H8.62875V161.907H21.6488V164.622H12.8438V166.437C13.0838 166.242 14.1488 165.447 16.7887 165.447H16.9238C21.4238 165.447 22.4288 167.157 22.4288 169.152V169.242C22.4288 171.087 21.3638 173.277 15.8588 173.277ZM39.3854 167.247V167.697C39.3854 169.722 38.4254 173.277 31.5554 173.277H30.8804C23.9954 173.277 23.0354 169.722 23.0354 167.697V167.247C23.0354 165.192 23.9954 161.697 30.8804 161.697H31.5554C38.4254 161.697 39.3854 165.192 39.3854 167.247ZM34.9604 167.532V167.337C34.9604 166.182 34.2104 164.697 31.2104 164.697C28.1354 164.697 27.4454 166.182 27.4454 167.337V167.517C27.4454 168.672 28.1954 170.247 31.2104 170.247C34.2104 170.247 34.9604 168.687 34.9604 167.532Z" fill="#222A41"/>
<path d="M14.715 15H0.375V13.695C0.375 12.18 0.555 9.615 6.36 8.355C7.065 8.19 7.935 8.025 8.52 7.92C9.93 7.635 10.08 7.425 10.08 7.08C10.08 6.69 9.75 6.345 7.635 6.345C5.07 6.345 4.95 7.365 4.905 7.8H0.555V7.695C0.555 6.285 1.11 3.63 7.185 3.63H7.83C13.455 3.63 14.55 5.265 14.55 7.095V7.155C14.55 9.015 13.485 9.885 9.465 10.53L7.065 10.935C4.5 11.37 4.08 11.88 4.08 12.195H10.77V10.875H14.715V15ZM31.7536 9.18V9.63C31.7536 11.655 30.7936 15.21 23.9236 15.21H23.2486C16.3636 15.21 15.4036 11.655 15.4036 9.63V9.18C15.4036 7.125 16.3636 3.63 23.2486 3.63H23.9236C30.7936 3.63 31.7536 7.125 31.7536 9.18ZM27.3286 9.465V9.27C27.3286 8.115 26.5786 6.63 23.5786 6.63C20.5036 6.63 19.8136 8.115 19.8136 9.27V9.45C19.8136 10.605 20.5636 12.18 23.5786 12.18C26.5786 12.18 27.3286 10.62 27.3286 9.465ZM48.7897 9.18V9.63C48.7897 11.655 47.8297 15.21 40.9597 15.21H40.2847C33.3997 15.21 32.4397 11.655 32.4397 9.63V9.18C32.4397 7.125 33.3997 3.63 40.2847 3.63H40.9597C47.8297 3.63 48.7897 7.125 48.7897 9.18ZM44.3647 9.465V9.27C44.3647 8.115 43.6147 6.63 40.6147 6.63C37.5397 6.63 36.8497 8.115 36.8497 9.27V9.45C36.8497 10.605 37.5997 12.18 40.6147 12.18C43.6147 12.18 44.3647 10.62 44.3647 9.465Z" fill="#222A41"/>
</svg>
