<svg width="25" height="21" viewBox="0 0 25 21" fill="none" xmlns="http://www.w3.org/2000/svg">
<path fill-rule="evenodd" clip-rule="evenodd" d="M2.32609 8.92938C8.48041 6.24804 12.5843 4.48034 14.6376 3.62627C20.5004 1.18774 21.7186 0.764137 22.5127 0.750149C22.6873 0.747073 23.0778 0.790353 23.3307 0.995594C23.5443 1.1689 23.6031 1.403 23.6312 1.56731C23.6593 1.73162 23.6943 2.10592 23.6665 2.39838C23.3488 5.73655 21.9741 13.8374 21.2747 17.5762C20.9788 19.1582 20.3961 19.6887 19.8319 19.7406C18.606 19.8534 17.675 18.9304 16.4876 18.152C14.6296 16.9341 13.5799 16.1759 11.7763 14.9873C9.69201 13.6138 11.0432 12.8589 12.231 11.6251C12.5419 11.3022 17.9435 6.38905 18.0481 5.94335C18.0612 5.88761 18.0733 5.67982 17.9499 5.57011C17.8264 5.46039 17.6442 5.49791 17.5128 5.52775C17.3264 5.57004 14.3581 7.53196 8.60796 11.4135C7.76543 11.992 7.00229 12.2739 6.31854 12.2591C5.56477 12.2429 4.11481 11.8329 3.03691 11.4826C1.71482 11.0528 0.664056 10.8256 0.755554 10.0957C0.803212 9.71558 1.32672 9.32679 2.32609 8.92938Z" stroke="#222A41" stroke-width="1.5" stroke-linejoin="round"/>
</svg>
